<svg width="32" height="32" viewBox="0 0 32 32" fill="none" xmlns="http://www.w3.org/2000/svg">
<rect width="32" height="32" fill="#FFF8E6"/>
<path d="M9.47834 26C7.82658 26 6.49599 25.5014 5.48659 24.5042C4.49553 23.4874 4 22.1383 4 20.4567V10.5433C4 8.86173 4.49553 7.52235 5.48659 6.52514C6.49599 5.50838 7.82658 5 9.47834 5C11.1301 5 12.4607 5.50838 13.4701 6.52514C14.4795 7.5419 14.9842 8.89106 14.9842 10.5726V11.6872C14.9842 11.7849 14.9475 11.8729 14.8741 11.9511C14.819 12.0098 14.7456 12.0391 14.6539 12.0391H11.4329C11.3412 12.0391 11.2586 12.0098 11.1852 11.9511C11.1301 11.8729 11.1026 11.7849 11.1026 11.6872V10.514C11.1026 9.92737 10.9558 9.4581 10.6621 9.10614C10.3685 8.73464 9.97387 8.54888 9.47834 8.54888C9.00117 8.54888 8.61575 8.73464 8.32211 9.10614C8.02846 9.4581 7.88164 9.92737 7.88164 10.514V20.486C7.88164 21.0726 8.02846 21.5517 8.32211 21.9232C8.61575 22.2751 9.00117 22.4511 9.47834 22.4511C9.97387 22.4511 10.3685 22.2751 10.6621 21.9232C10.9558 21.5517 11.1026 21.0726 11.1026 20.486V18.1397C11.1026 18.0419 11.0567 17.993 10.9649 17.993H9.75363C9.66187 17.993 9.57928 17.9637 9.50587 17.905C9.45081 17.8268 9.42328 17.7388 9.42328 17.6411V15.0307C9.42328 14.933 9.45081 14.8547 9.50587 14.7961C9.57928 14.7179 9.66187 14.6788 9.75363 14.6788H14.6539C14.7456 14.6788 14.819 14.7179 14.8741 14.7961C14.9475 14.8547 14.9842 14.933 14.9842 15.0307V20.4567C14.9842 22.1383 14.4795 23.4874 13.4701 24.5042C12.4607 25.5014 11.1301 26 9.47834 26Z" fill="#6F0B23"/>
<path d="M22.4115 26C20.7231 26 19.3741 25.4721 18.3647 24.4162C17.3553 23.3603 16.8506 21.9525 16.8506 20.1927V10.8073C16.8506 9.04749 17.3553 7.63966 18.3647 6.5838C19.3741 5.52793 20.7231 5 22.4115 5C24.1 5 25.4489 5.52793 26.4584 6.5838C27.4861 7.63966 28 9.04749 28 10.8073V20.1927C28 21.9525 27.4861 23.3603 26.4584 24.4162C25.4489 25.4721 24.1 26 22.4115 26ZM22.4115 22.4511C22.9254 22.4511 23.3384 22.2654 23.6504 21.8939C23.9624 21.5028 24.1184 20.9944 24.1184 20.3687V10.6313C24.1184 10.0056 23.9624 9.50698 23.6504 9.13547C23.3384 8.74441 22.9254 8.54888 22.4115 8.54888C21.8977 8.54888 21.4847 8.74441 21.1727 9.13547C20.8791 9.50698 20.7323 10.0056 20.7323 10.6313V20.3687C20.7323 20.9944 20.8791 21.5028 21.1727 21.8939C21.4847 22.2654 21.8977 22.4511 22.4115 22.4511Z" fill="#6F0B23"/>
</svg>
