<svg width="400" height="400" viewBox="0 0 400 400" fill="none" xmlns="http://www.w3.org/2000/svg">
<g clip-path="url(#clip0_109_1433)">
<path d="M451 358H517V442H505V466L481 442H427V418H283V334H451V358ZM453.658 372.25C449.013 372.25 445.27 373.593 442.431 376.28C439.643 378.916 438.25 382.456 438.25 386.9V413.1C438.25 417.544 439.643 421.11 442.431 423.797C445.27 426.432 449.013 427.75 453.658 427.75C458.304 427.75 462.046 426.432 464.885 423.797C467.724 421.11 469.144 417.544 469.144 413.1V398.76C469.144 398.501 469.039 398.295 468.833 398.14C468.678 397.933 468.472 397.83 468.214 397.83H454.432C454.174 397.83 453.942 397.933 453.735 398.14C453.581 398.295 453.503 398.501 453.503 398.76V405.658C453.503 405.917 453.58 406.15 453.735 406.356C453.942 406.511 454.174 406.589 454.432 406.589H457.839C458.097 406.589 458.226 406.718 458.226 406.977V413.178C458.226 414.728 457.813 415.994 456.987 416.976C456.161 417.906 455.052 418.371 453.658 418.371C452.316 418.371 451.232 417.906 450.406 416.976C449.58 415.994 449.167 414.728 449.167 413.178V386.822C449.167 385.272 449.58 384.032 450.406 383.102C451.232 382.12 452.316 381.629 453.658 381.629C455.052 381.629 456.162 382.12 456.987 383.102C457.813 384.032 458.226 385.272 458.226 386.822V389.923C458.226 390.181 458.303 390.414 458.458 390.621C458.664 390.776 458.897 390.854 459.155 390.854H468.214C468.472 390.854 468.678 390.776 468.833 390.621C469.039 390.414 469.144 390.181 469.144 389.923V386.978C469.144 382.533 467.724 378.967 464.885 376.28C462.046 373.593 458.304 372.25 453.658 372.25ZM490.032 372.25C485.284 372.25 481.489 373.645 478.65 376.436C475.812 379.226 474.393 382.947 474.393 387.598V412.402C474.393 417.053 475.812 420.774 478.65 423.564C481.489 426.355 485.284 427.75 490.032 427.75C494.781 427.75 498.575 426.355 501.414 423.564C504.305 420.774 505.75 417.053 505.75 412.402V387.598C505.75 382.947 504.305 379.226 501.414 376.436C498.575 373.645 494.781 372.25 490.032 372.25ZM490.032 381.629C491.478 381.629 492.639 382.146 493.517 383.18C494.394 384.162 494.833 385.479 494.833 387.133V412.867C494.833 414.521 494.394 415.865 493.517 416.898C492.639 417.88 491.477 418.371 490.032 418.371C488.587 418.371 487.425 417.88 486.548 416.898C485.722 415.865 485.31 414.521 485.31 412.867V387.133C485.31 385.479 485.722 384.161 486.548 383.18C487.425 382.146 488.587 381.629 490.032 381.629ZM295.96 348.25C295.693 348.25 295.454 348.356 295.24 348.567C295.08 348.726 295 348.937 295 349.201V402.799C295 403.063 295.08 403.3 295.24 403.512C295.454 403.67 295.693 403.75 295.96 403.75H305.321C305.588 403.75 305.802 403.67 305.962 403.512C306.175 403.3 306.281 403.063 306.281 402.799V381.153C306.281 380.889 306.415 380.757 306.682 380.757H316.203C316.47 380.757 316.684 380.678 316.844 380.52C317.057 380.308 317.163 380.07 317.163 379.806V372.115C317.163 371.851 317.057 371.639 316.844 371.48C316.684 371.269 316.47 371.164 316.203 371.164H306.682C306.415 371.164 306.281 371.032 306.281 370.768V358.24C306.281 357.976 306.415 357.844 306.682 357.844H323.324C323.591 357.844 323.805 357.764 323.965 357.605C324.178 357.394 324.284 357.157 324.284 356.893V349.201C324.284 348.937 324.178 348.726 323.965 348.567C323.805 348.356 323.591 348.25 323.324 348.25H295.96ZM335.797 348.25C335.21 348.25 334.864 348.541 334.757 349.122L322.995 402.72C322.835 403.407 323.102 403.75 323.795 403.75H333.156C333.796 403.75 334.143 403.459 334.196 402.878L335.477 395.267C335.477 395.002 335.637 394.87 335.957 394.87H346.118C346.438 394.87 346.599 395.002 346.599 395.267L347.879 402.878C347.932 403.459 348.279 403.75 348.919 403.75H358.521C359.107 403.75 359.4 403.512 359.4 403.036L359.32 402.72L347.639 349.122C347.532 348.541 347.185 348.25 346.599 348.25H335.797ZM364.955 348.25C364.688 348.25 364.448 348.356 364.234 348.567C364.075 348.726 363.995 348.937 363.995 349.201V402.799C363.995 403.063 364.075 403.3 364.234 403.512C364.448 403.67 364.688 403.75 364.955 403.75H374.316C374.583 403.75 374.796 403.67 374.956 403.512C375.169 403.3 375.276 403.063 375.276 402.799V349.201C375.276 348.937 375.169 348.726 374.956 348.567C374.796 348.356 374.583 348.25 374.316 348.25H364.955ZM383.396 348.25C383.129 348.25 382.888 348.356 382.675 348.567C382.515 348.726 382.436 348.937 382.436 349.201V402.799C382.436 403.063 382.515 403.3 382.675 403.512C382.888 403.67 383.129 403.75 383.396 403.75H392.757C393.023 403.75 393.236 403.67 393.396 403.512C393.61 403.3 393.717 403.063 393.717 402.799V381.153C393.717 380.889 393.851 380.757 394.117 380.757H396.837C396.997 380.757 397.131 380.863 397.237 381.074L403.398 402.957C403.558 403.486 403.932 403.75 404.519 403.75H414.12C414.707 403.75 415 403.486 415 402.957L414.92 402.64L407.559 379.251C407.505 379.145 407.505 379.066 407.559 379.013C407.612 378.907 407.692 378.828 407.799 378.775C409.932 377.454 411.586 375.603 412.76 373.225C413.986 370.846 414.6 368.098 414.6 364.979C414.6 361.702 413.96 358.795 412.68 356.258C411.453 353.721 409.692 351.765 407.398 350.391C405.105 348.964 402.491 348.25 399.558 348.25H383.396ZM340.918 363.948C341.024 363.948 341.104 364.028 341.157 364.187L344.918 385.831C344.971 386.095 344.864 386.228 344.598 386.228H337.397C337.184 386.228 337.077 386.095 337.077 385.831L340.678 364.187C340.731 364.028 340.811 363.948 340.918 363.948ZM397.718 357.844C399.371 357.844 400.704 358.505 401.718 359.826C402.785 361.095 403.318 362.839 403.318 365.059C403.318 367.226 402.785 368.97 401.718 370.291C400.704 371.559 399.371 372.194 397.718 372.194H394.117C393.85 372.194 393.717 372.062 393.717 371.798V358.24C393.717 357.976 393.85 357.844 394.117 357.844H397.718Z" fill="#E9E1CE"/>
<path d="M251 158H317V242H305V266L281 242H227V218H83V134H251V158ZM253.658 172.25C249.013 172.25 245.27 173.593 242.431 176.28C239.643 178.916 238.25 182.456 238.25 186.9V213.1C238.25 217.544 239.643 221.11 242.431 223.797C245.27 226.432 249.013 227.75 253.658 227.75C258.304 227.75 262.046 226.432 264.885 223.797C267.724 221.11 269.144 217.544 269.144 213.1V198.76C269.144 198.501 269.039 198.295 268.833 198.14C268.678 197.933 268.472 197.83 268.214 197.83H254.432C254.174 197.83 253.942 197.933 253.735 198.14C253.581 198.295 253.503 198.501 253.503 198.76V205.658C253.503 205.917 253.58 206.15 253.735 206.356C253.942 206.511 254.174 206.589 254.432 206.589H257.839C258.097 206.589 258.226 206.718 258.226 206.977V213.178C258.226 214.728 257.813 215.994 256.987 216.976C256.161 217.906 255.052 218.371 253.658 218.371C252.316 218.371 251.232 217.906 250.406 216.976C249.58 215.994 249.167 214.728 249.167 213.178V186.822C249.167 185.272 249.58 184.032 250.406 183.102C251.232 182.12 252.316 181.629 253.658 181.629C255.052 181.629 256.162 182.12 256.987 183.102C257.813 184.032 258.226 185.272 258.226 186.822V189.923C258.226 190.181 258.303 190.414 258.458 190.621C258.664 190.776 258.897 190.854 259.155 190.854H268.214C268.472 190.854 268.678 190.776 268.833 190.621C269.039 190.414 269.144 190.181 269.144 189.923V186.978C269.144 182.533 267.724 178.967 264.885 176.28C262.046 173.593 258.304 172.25 253.658 172.25ZM290.032 172.25C285.284 172.25 281.489 173.645 278.65 176.436C275.812 179.226 274.393 182.947 274.393 187.598V212.402C274.393 217.053 275.812 220.774 278.65 223.564C281.489 226.355 285.284 227.75 290.032 227.75C294.781 227.75 298.575 226.355 301.414 223.564C304.305 220.774 305.75 217.053 305.75 212.402V187.598C305.75 182.947 304.305 179.226 301.414 176.436C298.575 173.645 294.781 172.25 290.032 172.25ZM290.032 181.629C291.478 181.629 292.639 182.146 293.517 183.18C294.394 184.162 294.833 185.479 294.833 187.133V212.867C294.833 214.521 294.394 215.865 293.517 216.898C292.639 217.88 291.477 218.371 290.032 218.371C288.587 218.371 287.425 217.88 286.548 216.898C285.722 215.865 285.31 214.521 285.31 212.867V187.133C285.31 185.479 285.722 184.161 286.548 183.18C287.425 182.146 288.587 181.629 290.032 181.629ZM95.96 148.25C95.6933 148.25 95.4536 148.356 95.2402 148.567C95.0803 148.726 95.0001 148.937 95 149.201V202.799C95.0001 203.063 95.0804 203.3 95.2402 203.512C95.4536 203.67 95.6933 203.75 95.96 203.75H105.321C105.588 203.75 105.802 203.67 105.962 203.512C106.175 203.3 106.281 203.063 106.281 202.799V181.153C106.281 180.889 106.415 180.757 106.682 180.757H116.203C116.47 180.757 116.684 180.678 116.844 180.52C117.057 180.308 117.163 180.07 117.163 179.806V172.115C117.163 171.851 117.057 171.639 116.844 171.48C116.684 171.269 116.47 171.164 116.203 171.164H106.682C106.415 171.164 106.281 171.032 106.281 170.768V158.24C106.281 157.976 106.415 157.844 106.682 157.844H123.324C123.591 157.844 123.805 157.764 123.965 157.605C124.178 157.394 124.284 157.157 124.284 156.893V149.201C124.284 148.937 124.178 148.726 123.965 148.567C123.805 148.356 123.591 148.25 123.324 148.25H95.96ZM135.797 148.25C135.21 148.25 134.864 148.541 134.757 149.122L122.995 202.72C122.835 203.407 123.102 203.75 123.795 203.75H133.156C133.796 203.75 134.143 203.459 134.196 202.878L135.477 195.267C135.477 195.002 135.637 194.87 135.957 194.87H146.118C146.438 194.87 146.599 195.002 146.599 195.267L147.879 202.878C147.932 203.459 148.279 203.75 148.919 203.75H158.521C159.107 203.75 159.4 203.512 159.4 203.036L159.32 202.72L147.639 149.122C147.532 148.541 147.185 148.25 146.599 148.25H135.797ZM164.955 148.25C164.688 148.25 164.448 148.356 164.234 148.567C164.075 148.726 163.995 148.937 163.995 149.201V202.799C163.995 203.063 164.075 203.3 164.234 203.512C164.448 203.67 164.688 203.75 164.955 203.75H174.316C174.583 203.75 174.796 203.67 174.956 203.512C175.169 203.3 175.276 203.063 175.276 202.799V149.201C175.276 148.937 175.169 148.726 174.956 148.567C174.796 148.356 174.583 148.25 174.316 148.25H164.955ZM183.396 148.25C183.129 148.25 182.888 148.356 182.675 148.567C182.515 148.726 182.436 148.937 182.436 149.201V202.799C182.436 203.063 182.515 203.3 182.675 203.512C182.888 203.67 183.129 203.75 183.396 203.75H192.757C193.023 203.75 193.236 203.67 193.396 203.512C193.61 203.3 193.717 203.063 193.717 202.799V181.153C193.717 180.889 193.851 180.757 194.117 180.757H196.837C196.997 180.757 197.131 180.863 197.237 181.074L203.398 202.957C203.558 203.486 203.932 203.75 204.519 203.75H214.12C214.707 203.75 215 203.486 215 202.957L214.92 202.64L207.559 179.251C207.505 179.145 207.505 179.066 207.559 179.013C207.612 178.907 207.692 178.828 207.799 178.775C209.932 177.454 211.586 175.603 212.76 173.225C213.986 170.846 214.6 168.098 214.6 164.979C214.6 161.702 213.96 158.795 212.68 156.258C211.453 153.721 209.692 151.765 207.398 150.391C205.105 148.964 202.491 148.25 199.558 148.25H183.396ZM140.918 163.948C141.024 163.948 141.104 164.028 141.157 164.187L144.918 185.831C144.971 186.095 144.864 186.228 144.598 186.228H137.397C137.184 186.228 137.077 186.095 137.077 185.831L140.678 164.187C140.731 164.028 140.811 163.948 140.918 163.948ZM197.718 157.844C199.371 157.844 200.704 158.505 201.718 159.826C202.785 161.095 203.318 162.839 203.318 165.059C203.318 167.226 202.785 168.97 201.718 170.291C200.704 171.559 199.371 172.194 197.718 172.194H194.117C193.85 172.194 193.717 172.062 193.717 171.798V158.24C193.717 157.976 193.85 157.844 194.117 157.844H197.718Z" fill="#E9E1CE"/>
<g style="mix-blend-mode:multiply">
<path d="M227 158H251V134L227 158Z" fill="#E9E1CE"/>
</g>
<path d="M90.7087 226.112C90.7087 226.185 90.6791 226.251 90.62 226.31C90.5757 226.354 90.5167 226.376 90.4428 226.376H85.6803C85.6065 226.376 85.5696 226.412 85.5696 226.486V230.643C85.5696 230.716 85.6065 230.753 85.6803 230.753H88.4935C88.5674 230.753 88.6264 230.782 88.6707 230.841C88.7298 230.885 88.7593 230.944 88.7593 231.017V232.711C88.7593 232.784 88.7298 232.85 88.6707 232.909C88.6264 232.953 88.5674 232.975 88.4935 232.975H85.6803C85.6065 232.975 85.5696 233.012 85.5696 233.085V239.31C85.5696 239.383 85.54 239.449 85.4809 239.508C85.4366 239.552 85.3776 239.574 85.3037 239.574H83.2658C83.192 239.574 83.1255 239.552 83.0665 239.508C83.0222 239.449 83 239.383 83 239.31V224.44C83 224.367 83.0222 224.308 83.0665 224.264C83.1255 224.205 83.192 224.176 83.2658 224.176H90.4428C90.5167 224.176 90.5757 224.205 90.62 224.264C90.6791 224.308 90.7087 224.367 90.7087 224.44V226.112Z" fill="#E9E1CE"/>
<path d="M96.1587 239.75C94.8887 239.75 93.8624 239.369 93.0797 238.606C92.3118 237.844 91.9278 236.832 91.9278 235.571V228.179C91.9278 226.918 92.3118 225.906 93.0797 225.144C93.8624 224.381 94.8887 224 96.1587 224C97.4287 224 98.4551 224.381 99.2378 225.144C100.02 225.906 100.412 226.918 100.412 228.179V235.571C100.412 236.832 100.02 237.844 99.2378 238.606C98.4551 239.369 97.4287 239.75 96.1587 239.75ZM96.1587 237.55C96.6608 237.55 97.0669 237.382 97.3771 237.044C97.6872 236.692 97.8422 236.238 97.8422 235.681V228.069C97.8422 227.512 97.6872 227.065 97.3771 226.728C97.0669 226.376 96.6608 226.2 96.1587 226.2C95.6566 226.2 95.2505 226.376 94.9404 226.728C94.6451 227.065 94.4974 227.512 94.4974 228.069V235.681C94.4974 236.238 94.6451 236.692 94.9404 237.044C95.2505 237.382 95.6566 237.55 96.1587 237.55Z" fill="#E9E1CE"/>
<path d="M108.67 239.574C108.522 239.574 108.426 239.501 108.382 239.354L106.499 233.041C106.469 232.982 106.432 232.953 106.388 232.953H105.214C105.14 232.953 105.103 232.99 105.103 233.063V239.31C105.103 239.383 105.074 239.449 105.015 239.508C104.97 239.552 104.911 239.574 104.838 239.574H102.8C102.726 239.574 102.659 239.552 102.6 239.508C102.556 239.449 102.534 239.383 102.534 239.31V224.44C102.534 224.367 102.556 224.308 102.6 224.264C102.659 224.205 102.726 224.176 102.8 224.176H106.964C107.747 224.176 108.433 224.367 109.024 224.748C109.63 225.115 110.095 225.642 110.42 226.332C110.759 227.006 110.929 227.784 110.929 228.663C110.929 229.573 110.752 230.357 110.398 231.017C110.043 231.677 109.548 232.176 108.913 232.513C108.854 232.528 108.832 232.572 108.847 232.645L111.018 239.266C111.033 239.295 111.04 239.332 111.04 239.376C111.04 239.508 110.959 239.574 110.796 239.574H108.67ZM105.214 226.376C105.14 226.376 105.103 226.412 105.103 226.486V230.863C105.103 230.936 105.14 230.973 105.214 230.973H106.565C107.097 230.973 107.525 230.768 107.85 230.357C108.19 229.947 108.36 229.389 108.36 228.685C108.36 227.981 108.19 227.424 107.85 227.014C107.525 226.588 107.097 226.376 106.565 226.376H105.214Z" fill="#E9E1CE"/>
<path d="M123.47 239.574C123.293 239.574 123.197 239.493 123.182 239.332L122.761 237.022C122.761 236.949 122.717 236.912 122.628 236.912H119.394C119.305 236.912 119.261 236.949 119.261 237.022L118.84 239.332C118.825 239.493 118.729 239.574 118.552 239.574H116.536C116.33 239.574 116.248 239.479 116.293 239.288L119.571 224.418C119.601 224.257 119.697 224.176 119.859 224.176H122.207C122.37 224.176 122.466 224.257 122.495 224.418L125.773 239.288V239.376C125.773 239.508 125.692 239.574 125.53 239.574H123.47ZM119.66 234.801C119.645 234.874 119.682 234.911 119.77 234.911H122.229C122.318 234.911 122.355 234.874 122.34 234.801L121.055 227.85C121.04 227.806 121.018 227.784 120.989 227.784C120.959 227.784 120.937 227.806 120.922 227.85L119.66 234.801Z" fill="#E9E1CE"/>
<path d="M131.379 239.75C130.109 239.75 129.09 239.347 128.322 238.54C127.569 237.719 127.192 236.641 127.192 235.307V224.44C127.192 224.367 127.215 224.308 127.259 224.264C127.318 224.205 127.384 224.176 127.458 224.176H129.496C129.57 224.176 129.629 224.205 129.673 224.264C129.732 224.308 129.762 224.367 129.762 224.44V235.571C129.762 236.157 129.91 236.634 130.205 237C130.5 237.367 130.892 237.55 131.379 237.55C131.866 237.55 132.258 237.367 132.553 237C132.848 236.634 132.996 236.157 132.996 235.571V224.44C132.996 224.367 133.018 224.308 133.062 224.264C133.122 224.205 133.188 224.176 133.262 224.176H135.3C135.374 224.176 135.433 224.205 135.477 224.264C135.536 224.308 135.566 224.367 135.566 224.44V235.307C135.566 236.641 135.182 237.719 134.414 238.54C133.646 239.347 132.634 239.75 131.379 239.75Z" fill="#E9E1CE"/>
<path d="M141.514 239.75C140.288 239.75 139.299 239.383 138.546 238.65C137.793 237.917 137.416 236.956 137.416 235.769V235.197C137.416 235.123 137.438 235.065 137.483 235.021C137.542 234.962 137.608 234.933 137.682 234.933H139.698C139.771 234.933 139.831 234.962 139.875 235.021C139.934 235.065 139.963 235.123 139.963 235.197V235.637C139.963 236.208 140.104 236.67 140.384 237.022C140.68 237.374 141.056 237.55 141.514 237.55C141.972 237.55 142.348 237.389 142.644 237.066C142.939 236.729 143.087 236.289 143.087 235.747C143.087 235.365 143.006 235.035 142.843 234.757C142.681 234.478 142.452 234.214 142.156 233.965C141.861 233.715 141.389 233.356 140.739 232.887C140 232.359 139.402 231.89 138.944 231.479C138.501 231.068 138.125 230.577 137.815 230.005C137.519 229.419 137.372 228.744 137.372 227.981C137.372 226.764 137.741 225.796 138.479 225.078C139.218 224.359 140.192 224 141.403 224C142.629 224 143.618 224.381 144.372 225.144C145.125 225.892 145.501 226.889 145.501 228.135V228.663C145.501 228.737 145.472 228.803 145.413 228.861C145.368 228.905 145.309 228.927 145.235 228.927H143.242C143.168 228.927 143.102 228.905 143.042 228.861C142.998 228.803 142.976 228.737 142.976 228.663V228.091C142.976 227.52 142.828 227.065 142.533 226.728C142.252 226.376 141.876 226.2 141.403 226.2C140.96 226.2 140.598 226.361 140.318 226.684C140.037 226.992 139.897 227.424 139.897 227.981C139.897 228.509 140.045 228.957 140.34 229.323C140.65 229.69 141.248 230.196 142.134 230.841C143.035 231.501 143.714 232.044 144.172 232.469C144.63 232.88 144.984 233.334 145.235 233.833C145.487 234.331 145.612 234.925 145.612 235.615C145.612 236.861 145.235 237.866 144.482 238.628C143.729 239.376 142.74 239.75 141.514 239.75Z" fill="#E9E1CE"/>
<path d="M155.221 224.176C155.295 224.176 155.354 224.205 155.399 224.264C155.458 224.308 155.487 224.367 155.487 224.44V226.112C155.487 226.185 155.458 226.251 155.399 226.31C155.354 226.354 155.295 226.376 155.221 226.376H152.408C152.334 226.376 152.297 226.412 152.297 226.486V239.31C152.297 239.383 152.268 239.449 152.209 239.508C152.164 239.552 152.105 239.574 152.032 239.574H149.994C149.92 239.574 149.853 239.552 149.794 239.508C149.75 239.449 149.728 239.383 149.728 239.31V226.486C149.728 226.412 149.691 226.376 149.617 226.376H146.959C146.885 226.376 146.819 226.354 146.76 226.31C146.715 226.251 146.693 226.185 146.693 226.112V224.44C146.693 224.367 146.715 224.308 146.76 224.264C146.819 224.205 146.885 224.176 146.959 224.176H155.221Z" fill="#E9E1CE"/>
<path d="M163.421 239.574C163.273 239.574 163.177 239.501 163.133 239.354L161.25 233.041C161.22 232.982 161.183 232.953 161.139 232.953H159.965C159.891 232.953 159.854 232.99 159.854 233.063V239.31C159.854 239.383 159.825 239.449 159.766 239.508C159.721 239.552 159.662 239.574 159.588 239.574H157.551C157.477 239.574 157.41 239.552 157.351 239.508C157.307 239.449 157.285 239.383 157.285 239.31V224.44C157.285 224.367 157.307 224.308 157.351 224.264C157.41 224.205 157.477 224.176 157.551 224.176H161.715C162.498 224.176 163.184 224.367 163.775 224.748C164.381 225.115 164.846 225.642 165.171 226.332C165.51 227.006 165.68 227.784 165.68 228.663C165.68 229.573 165.503 230.357 165.148 231.017C164.794 231.677 164.299 232.176 163.664 232.513C163.605 232.528 163.583 232.572 163.598 232.645L165.769 239.266C165.783 239.295 165.791 239.332 165.791 239.376C165.791 239.508 165.71 239.574 165.547 239.574H163.421ZM159.965 226.376C159.891 226.376 159.854 226.412 159.854 226.486V230.863C159.854 230.936 159.891 230.973 159.965 230.973H161.316C161.848 230.973 162.276 230.768 162.601 230.357C162.941 229.947 163.111 229.389 163.111 228.685C163.111 227.981 162.941 227.424 162.601 227.014C162.276 226.588 161.848 226.376 161.316 226.376H159.965Z" fill="#E9E1CE"/>
<path d="M173.959 239.574C173.782 239.574 173.686 239.493 173.671 239.332L173.25 237.022C173.25 236.949 173.206 236.912 173.117 236.912H169.883C169.795 236.912 169.75 236.949 169.75 237.022L169.329 239.332C169.315 239.493 169.219 239.574 169.042 239.574H167.026C166.819 239.574 166.738 239.479 166.782 239.288L170.06 224.418C170.09 224.257 170.186 224.176 170.348 224.176H172.696C172.859 224.176 172.955 224.257 172.984 224.418L176.263 239.288V239.376C176.263 239.508 176.182 239.574 176.019 239.574H173.959ZM170.149 234.801C170.134 234.874 170.171 234.911 170.26 234.911H172.719C172.807 234.911 172.844 234.874 172.829 234.801L171.545 227.85C171.53 227.806 171.508 227.784 171.478 227.784C171.449 227.784 171.426 227.806 171.412 227.85L170.149 234.801Z" fill="#E9E1CE"/>
<path d="M178.036 239.574C177.962 239.574 177.896 239.552 177.837 239.508C177.793 239.449 177.77 239.383 177.77 239.31V224.44C177.77 224.367 177.793 224.308 177.837 224.264C177.896 224.205 177.962 224.176 178.036 224.176H180.074C180.148 224.176 180.207 224.205 180.251 224.264C180.31 224.308 180.34 224.367 180.34 224.44V237.264C180.34 237.338 180.377 237.374 180.451 237.374H185.235C185.309 237.374 185.368 237.404 185.413 237.462C185.472 237.506 185.501 237.565 185.501 237.638V239.31C185.501 239.383 185.472 239.449 185.413 239.508C185.368 239.552 185.309 239.574 185.235 239.574H178.036Z" fill="#E9E1CE"/>
<path d="M187.23 239.574C187.156 239.574 187.09 239.552 187.03 239.508C186.986 239.449 186.964 239.383 186.964 239.31V224.44C186.964 224.367 186.986 224.308 187.03 224.264C187.09 224.205 187.156 224.176 187.23 224.176H189.268C189.342 224.176 189.401 224.205 189.445 224.264C189.504 224.308 189.534 224.367 189.534 224.44V239.31C189.534 239.383 189.504 239.449 189.445 239.508C189.401 239.552 189.342 239.574 189.268 239.574H187.23Z" fill="#E9E1CE"/>
<path d="M198.209 239.574C198.032 239.574 197.936 239.493 197.921 239.332L197.5 237.022C197.5 236.949 197.456 236.912 197.367 236.912H194.133C194.044 236.912 194 236.949 194 237.022L193.579 239.332C193.564 239.493 193.468 239.574 193.291 239.574H191.275C191.069 239.574 190.987 239.479 191.032 239.288L194.31 224.418C194.34 224.257 194.436 224.176 194.598 224.176H196.946C197.109 224.176 197.205 224.257 197.234 224.418L200.512 239.288V239.376C200.512 239.508 200.431 239.574 200.269 239.574H198.209ZM194.399 234.801C194.384 234.874 194.421 234.911 194.509 234.911H196.968C197.057 234.911 197.094 234.874 197.079 234.801L195.794 227.85C195.779 227.806 195.757 227.784 195.728 227.784C195.698 227.784 195.676 227.806 195.661 227.85L194.399 234.801Z" fill="#E9E1CE"/>
<path d="M208.311 224.44C208.311 224.367 208.333 224.308 208.377 224.264C208.436 224.205 208.503 224.176 208.577 224.176H210.593C210.666 224.176 210.725 224.205 210.77 224.264C210.829 224.308 210.858 224.367 210.858 224.44V239.31C210.858 239.383 210.829 239.449 210.77 239.508C210.725 239.552 210.666 239.574 210.593 239.574H208.267C208.119 239.574 208.023 239.501 207.979 239.354L204.678 230.027C204.663 229.983 204.634 229.969 204.59 229.983C204.56 229.983 204.545 230.005 204.545 230.049L204.567 239.31C204.567 239.383 204.538 239.449 204.479 239.508C204.434 239.552 204.375 239.574 204.302 239.574H202.286C202.212 239.574 202.145 239.552 202.086 239.508C202.042 239.449 202.02 239.383 202.02 239.31V224.44C202.02 224.367 202.042 224.308 202.086 224.264C202.145 224.205 202.212 224.176 202.286 224.176H204.567C204.715 224.176 204.811 224.249 204.855 224.396L208.178 233.657C208.193 233.701 208.215 233.723 208.244 233.723C208.289 233.708 208.311 233.679 208.311 233.635V224.44Z" fill="#E9E1CE"/>
<path d="M216.902 239.75C215.676 239.75 214.687 239.383 213.934 238.65C213.181 237.917 212.804 236.956 212.804 235.769V235.197C212.804 235.123 212.826 235.065 212.87 235.021C212.93 234.962 212.996 234.933 213.07 234.933H215.086C215.159 234.933 215.219 234.962 215.263 235.021C215.322 235.065 215.351 235.123 215.351 235.197V235.637C215.351 236.208 215.492 236.67 215.772 237.022C216.068 237.374 216.444 237.55 216.902 237.55C217.36 237.55 217.736 237.389 218.032 237.066C218.327 236.729 218.475 236.289 218.475 235.747C218.475 235.365 218.394 235.035 218.231 234.757C218.069 234.478 217.84 234.214 217.544 233.965C217.249 233.715 216.776 233.356 216.127 232.887C215.388 232.359 214.79 231.89 214.332 231.479C213.889 231.068 213.513 230.577 213.203 230.005C212.907 229.419 212.76 228.744 212.76 227.981C212.76 226.764 213.129 225.796 213.867 225.078C214.606 224.359 215.58 224 216.791 224C218.017 224 219.006 224.381 219.76 225.144C220.513 225.892 220.889 226.889 220.889 228.135V228.663C220.889 228.737 220.86 228.803 220.801 228.861C220.756 228.905 220.697 228.927 220.623 228.927H218.63C218.556 228.927 218.49 228.905 218.43 228.861C218.386 228.803 218.364 228.737 218.364 228.663V228.091C218.364 227.52 218.216 227.065 217.921 226.728C217.64 226.376 217.264 226.2 216.791 226.2C216.348 226.2 215.986 226.361 215.706 226.684C215.425 226.992 215.285 227.424 215.285 227.981C215.285 228.509 215.433 228.957 215.728 229.323C216.038 229.69 216.636 230.196 217.522 230.841C218.423 231.501 219.102 232.044 219.56 232.469C220.018 232.88 220.372 233.334 220.623 233.833C220.874 234.331 221 234.925 221 235.615C221 236.861 220.623 237.866 219.87 238.628C219.117 239.376 218.128 239.75 216.902 239.75Z" fill="#E9E1CE"/>
<path d="M451 -42H517V42H505V66L481 42H427V18H283V-66H451V-42ZM453.658 -27.75C449.013 -27.75 445.27 -26.4069 442.431 -23.7197C439.643 -21.0843 438.25 -17.5437 438.25 -13.0996V13.0996C438.25 17.5437 439.643 21.1097 442.431 23.7969C445.27 26.4323 449.013 27.75 453.658 27.75C458.304 27.7499 462.046 26.4323 464.885 23.7969C467.724 21.1097 469.144 17.5437 469.144 13.0996V-1.24023C469.144 -1.49861 469.039 -1.70533 468.833 -1.86035C468.678 -2.06693 468.472 -2.16992 468.214 -2.16992H454.432C454.174 -2.1698 453.942 -2.0669 453.735 -1.86035C453.581 -1.70533 453.503 -1.49861 453.503 -1.24023V5.6582C453.503 5.91658 453.58 6.14974 453.735 6.35645C453.942 6.51128 454.174 6.58878 454.432 6.58887H457.839C458.097 6.58887 458.226 6.71819 458.226 6.97656V13.1777C458.226 14.7278 457.813 15.9938 456.987 16.9756C456.161 17.9057 455.052 18.371 453.658 18.3711C452.316 18.3711 451.232 17.9056 450.406 16.9756C449.58 15.9938 449.167 14.7278 449.167 13.1777V-13.1777C449.167 -14.7278 449.58 -15.9683 450.406 -16.8984C451.232 -17.88 452.316 -18.3711 453.658 -18.3711C455.052 -18.371 456.162 -17.8801 456.987 -16.8984C457.813 -15.9683 458.226 -14.7278 458.226 -13.1777V-10.0771C458.226 -9.81877 458.303 -9.58561 458.458 -9.37891C458.664 -9.22388 458.897 -9.14648 459.155 -9.14648H468.214C468.472 -9.14648 468.678 -9.2241 468.833 -9.37891C469.039 -9.58561 469.144 -9.81877 469.144 -10.0771V-13.0225C469.144 -17.4665 467.724 -21.0326 464.885 -23.7197C462.046 -26.4067 458.304 -27.7499 453.658 -27.75ZM490.032 -27.75C485.284 -27.75 481.489 -26.3549 478.65 -23.5645C475.812 -20.774 474.393 -17.0531 474.393 -12.4023V12.4023C474.393 17.0531 475.812 20.774 478.65 23.5645C481.489 26.3549 485.284 27.75 490.032 27.75C494.781 27.75 498.575 26.3549 501.414 23.5645C504.305 20.774 505.75 17.0531 505.75 12.4023V-12.4023C505.75 -17.0531 504.305 -20.774 501.414 -23.5645C498.575 -26.3549 494.781 -27.75 490.032 -27.75ZM490.032 -18.3711C491.478 -18.3711 492.639 -17.8538 493.517 -16.8203C494.394 -15.8385 494.833 -14.5208 494.833 -12.8672V12.8672C494.833 14.5208 494.394 15.8649 493.517 16.8984C492.639 17.8801 491.477 18.3711 490.032 18.3711C488.587 18.371 487.425 17.8802 486.548 16.8984C485.722 15.8649 485.31 14.5208 485.31 12.8672V-12.8672C485.31 -14.5206 485.722 -15.8385 486.548 -16.8203C487.425 -17.8538 488.587 -18.371 490.032 -18.3711ZM295.96 -51.75C295.693 -51.75 295.454 -51.644 295.24 -51.4326C295.08 -51.2741 295 -51.063 295 -50.7988V2.79883C295 3.06294 295.08 3.3004 295.24 3.51172C295.454 3.67025 295.693 3.74996 295.96 3.75H305.321C305.588 3.75 305.802 3.67029 305.962 3.51172C306.175 3.30044 306.281 3.06287 306.281 2.79883V-18.8467C306.281 -19.1108 306.415 -19.2431 306.682 -19.2432H316.203C316.47 -19.2432 316.684 -19.3219 316.844 -19.4805C317.057 -19.6919 317.163 -19.9301 317.163 -20.1943V-27.8848C317.163 -28.149 317.057 -28.361 316.844 -28.5195C316.684 -28.731 316.47 -28.8359 316.203 -28.8359H306.682C306.415 -28.836 306.281 -28.9685 306.281 -29.2324V-41.7598C306.281 -42.024 306.415 -42.1562 306.682 -42.1562H323.324C323.591 -42.1562 323.805 -42.236 323.965 -42.3945C324.178 -42.6058 324.284 -42.8435 324.284 -43.1074V-50.7988C324.284 -51.0628 324.178 -51.2741 323.965 -51.4326C323.805 -51.644 323.591 -51.75 323.324 -51.75H295.96ZM335.797 -51.75C335.21 -51.75 334.864 -51.4593 334.757 -50.8779L322.995 2.71973C322.835 3.40662 323.102 3.74998 323.795 3.75H333.156C333.796 3.75 334.143 3.45929 334.196 2.87793L335.477 -4.7334C335.477 -4.99768 335.637 -5.12988 335.957 -5.12988H346.118C346.438 -5.12988 346.599 -4.99768 346.599 -4.7334L347.879 2.87793C347.932 3.45929 348.279 3.75 348.919 3.75H358.521C359.107 3.74992 359.4 3.51177 359.4 3.03613L359.32 2.71973L347.639 -50.8779C347.532 -51.4593 347.185 -51.7499 346.599 -51.75H335.797ZM364.955 -51.75C364.688 -51.75 364.448 -51.644 364.234 -51.4326C364.075 -51.2741 363.995 -51.0628 363.995 -50.7988V2.79883C363.995 3.06281 364.075 3.30048 364.234 3.51172C364.448 3.67029 364.688 3.75 364.955 3.75H374.316C374.583 3.74999 374.796 3.67028 374.956 3.51172C375.169 3.30036 375.276 3.06301 375.276 2.79883V-50.7988C375.276 -51.063 375.169 -51.2741 374.956 -51.4326C374.796 -51.644 374.583 -51.75 374.316 -51.75H364.955ZM383.396 -51.75C383.129 -51.75 382.888 -51.644 382.675 -51.4326C382.515 -51.2741 382.436 -51.0628 382.436 -50.7988V2.79883C382.436 3.06283 382.515 3.30046 382.675 3.51172C382.888 3.67029 383.129 3.75 383.396 3.75H392.757C393.023 3.74996 393.236 3.67025 393.396 3.51172C393.61 3.30038 393.717 3.06298 393.717 2.79883V-18.8467C393.717 -19.1108 393.851 -19.2432 394.117 -19.2432H396.837C396.997 -19.2432 397.131 -19.1372 397.237 -18.9258L403.398 2.95703C403.558 3.4856 403.932 3.75 404.519 3.75H414.12C414.707 3.74993 415 3.48553 415 2.95703L414.92 2.63965L407.559 -20.749C407.505 -20.8547 407.505 -20.9344 407.559 -20.9873C407.612 -21.0929 407.692 -21.1718 407.799 -21.2246C409.932 -22.546 411.586 -24.3968 412.76 -26.7754C413.986 -29.1538 414.6 -31.9022 414.6 -35.0205C414.6 -38.2976 413.96 -41.205 412.68 -43.7422C411.453 -46.2793 409.692 -48.2351 407.398 -49.6094C405.105 -51.0364 402.491 -51.75 399.558 -51.75H383.396ZM340.918 -36.0518C341.024 -36.0516 341.104 -35.9718 341.157 -35.8135L344.918 -14.1689C344.971 -13.9047 344.864 -13.7725 344.598 -13.7725H337.397C337.184 -13.7725 337.077 -13.9047 337.077 -14.1689L340.678 -35.8135C340.731 -35.972 340.811 -36.0518 340.918 -36.0518ZM397.718 -42.1562C399.371 -42.1561 400.704 -41.4952 401.718 -40.1738C402.785 -38.9053 403.318 -37.1613 403.318 -34.9414C403.318 -32.7743 402.785 -31.0304 401.718 -29.709C400.704 -28.4405 399.371 -27.8058 397.718 -27.8057H394.117C393.85 -27.8057 393.717 -27.9379 393.717 -28.2021V-41.7598C393.717 -42.0241 393.85 -42.1562 394.117 -42.1562H397.718Z" fill="#E9E1CE"/>
<path d="M290.709 26.1117C290.709 26.1851 290.679 26.251 290.62 26.3097C290.576 26.3537 290.517 26.3757 290.443 26.3757H285.68C285.606 26.3757 285.57 26.4124 285.57 26.4857V30.6432C285.57 30.7165 285.606 30.7531 285.68 30.7531H288.494C288.567 30.7531 288.626 30.7825 288.671 30.8411C288.73 30.8851 288.759 30.9438 288.759 31.0171V32.7109C288.759 32.7842 288.73 32.8502 288.671 32.9089C288.626 32.9529 288.567 32.9749 288.494 32.9749H285.68C285.606 32.9749 285.57 33.0115 285.57 33.0848V39.3101C285.57 39.3834 285.54 39.4494 285.481 39.508C285.437 39.552 285.378 39.574 285.304 39.574H283.266C283.192 39.574 283.126 39.552 283.066 39.508C283.022 39.4494 283 39.3834 283 39.3101V24.4399C283 24.3666 283.022 24.308 283.066 24.264C283.126 24.2053 283.192 24.176 283.266 24.176H290.443C290.517 24.176 290.576 24.2053 290.62 24.264C290.679 24.308 290.709 24.3666 290.709 24.4399V26.1117Z" fill="#E9E1CE"/>
<path d="M296.159 39.75C294.889 39.75 293.862 39.3687 293.08 38.6061C292.312 37.8436 291.928 36.8317 291.928 35.5705V28.1795C291.928 26.9183 292.312 25.9064 293.08 25.1439C293.862 24.3813 294.889 24 296.159 24C297.429 24 298.455 24.3813 299.238 25.1439C300.02 25.9064 300.412 26.9183 300.412 28.1795V35.5705C300.412 36.8317 300.02 37.8436 299.238 38.6061C298.455 39.3687 297.429 39.75 296.159 39.75ZM296.159 37.5503C296.661 37.5503 297.067 37.3816 297.377 37.0443C297.687 36.6924 297.842 36.2378 297.842 35.6805V28.0695C297.842 27.5122 297.687 27.0649 297.377 26.7277C297.067 26.3757 296.661 26.1997 296.159 26.1997C295.657 26.1997 295.251 26.3757 294.94 26.7277C294.645 27.0649 294.497 27.5122 294.497 28.0695V35.6805C294.497 36.2378 294.645 36.6924 294.94 37.0443C295.251 37.3816 295.657 37.5503 296.159 37.5503Z" fill="#E9E1CE"/>
<path d="M308.67 39.574C308.522 39.574 308.426 39.5007 308.382 39.354L306.499 33.0409C306.469 32.9822 306.432 32.9529 306.388 32.9529H305.214C305.14 32.9529 305.103 32.9895 305.103 33.0628V39.3101C305.103 39.3834 305.074 39.4494 305.015 39.508C304.97 39.552 304.911 39.574 304.838 39.574H302.8C302.726 39.574 302.659 39.552 302.6 39.508C302.556 39.4494 302.534 39.3834 302.534 39.3101V24.4399C302.534 24.3666 302.556 24.308 302.6 24.264C302.659 24.2053 302.726 24.176 302.8 24.176H306.964C307.747 24.176 308.433 24.3666 309.024 24.7479C309.63 25.1145 310.095 25.6425 310.42 26.3317C310.759 27.0063 310.929 27.7835 310.929 28.6634C310.929 29.5726 310.752 30.3572 310.398 31.0171C310.043 31.677 309.548 32.1756 308.913 32.5129C308.854 32.5276 308.832 32.5716 308.847 32.6449L311.018 39.2661C311.033 39.2954 311.04 39.3321 311.04 39.376C311.04 39.508 310.959 39.574 310.796 39.574H308.67ZM305.214 26.3757C305.14 26.3757 305.103 26.4124 305.103 26.4857V30.8631C305.103 30.9365 305.14 30.9731 305.214 30.9731H306.565C307.097 30.9731 307.525 30.7678 307.85 30.3572C308.19 29.9466 308.36 29.3893 308.36 28.6854C308.36 27.9815 308.19 27.4242 307.85 27.0136C307.525 26.5883 307.097 26.3757 306.565 26.3757H305.214Z" fill="#E9E1CE"/>
<path d="M323.47 39.574C323.293 39.574 323.197 39.4934 323.182 39.3321L322.761 37.0223C322.761 36.949 322.717 36.9124 322.628 36.9124H319.394C319.305 36.9124 319.261 36.949 319.261 37.0223L318.84 39.3321C318.825 39.4934 318.729 39.574 318.552 39.574H316.536C316.33 39.574 316.248 39.4787 316.293 39.2881L319.571 24.4179C319.601 24.2566 319.697 24.176 319.859 24.176H322.207C322.37 24.176 322.466 24.2566 322.495 24.4179L325.773 39.2881V39.376C325.773 39.508 325.692 39.574 325.53 39.574H323.47ZM319.66 34.8006C319.645 34.874 319.682 34.9106 319.77 34.9106H322.229C322.318 34.9106 322.355 34.874 322.34 34.8006L321.055 27.8495C321.04 27.8055 321.018 27.7835 320.989 27.7835C320.959 27.7835 320.937 27.8055 320.922 27.8495L319.66 34.8006Z" fill="#E9E1CE"/>
<path d="M331.379 39.75C330.109 39.75 329.09 39.3467 328.322 38.5402C327.569 37.7189 327.192 36.6411 327.192 35.3066V24.4399C327.192 24.3666 327.215 24.308 327.259 24.264C327.318 24.2053 327.384 24.176 327.458 24.176H329.496C329.57 24.176 329.629 24.2053 329.673 24.264C329.732 24.308 329.762 24.3666 329.762 24.4399V35.5705C329.762 36.1571 329.91 36.6337 330.205 37.0003C330.5 37.367 330.892 37.5503 331.379 37.5503C331.866 37.5503 332.258 37.367 332.553 37.0003C332.848 36.6337 332.996 36.1571 332.996 35.5705V24.4399C332.996 24.3666 333.018 24.308 333.062 24.264C333.122 24.2053 333.188 24.176 333.262 24.176H335.3C335.374 24.176 335.433 24.2053 335.477 24.264C335.536 24.308 335.566 24.3666 335.566 24.4399V35.3066C335.566 36.6411 335.182 37.7189 334.414 38.5402C333.646 39.3467 332.634 39.75 331.379 39.75Z" fill="#E9E1CE"/>
<path d="M341.514 39.75C340.288 39.75 339.299 39.3834 338.546 38.6501C337.793 37.9169 337.416 36.9564 337.416 35.7685V35.1966C337.416 35.1233 337.438 35.0646 337.483 35.0206C337.542 34.9619 337.608 34.9326 337.682 34.9326H339.698C339.771 34.9326 339.831 34.9619 339.875 35.0206C339.934 35.0646 339.963 35.1233 339.963 35.1966V35.6365C339.963 36.2084 340.104 36.6704 340.384 37.0223C340.68 37.3743 341.056 37.5503 341.514 37.5503C341.972 37.5503 342.348 37.389 342.644 37.0663C342.939 36.7291 343.087 36.2891 343.087 35.7465C343.087 35.3652 343.006 35.0353 342.843 34.7566C342.681 34.478 342.452 34.214 342.156 33.9647C341.861 33.7154 341.389 33.3561 340.739 32.8869C340 32.3589 339.402 31.8897 338.944 31.479C338.501 31.0684 338.125 30.5772 337.815 30.0052C337.519 29.4186 337.372 28.7441 337.372 27.9815C337.372 26.7643 337.741 25.7964 338.479 25.0779C339.218 24.3593 340.192 24 341.403 24C342.629 24 343.618 24.3813 344.372 25.1439C345.125 25.8918 345.501 26.889 345.501 28.1355V28.6634C345.501 28.7367 345.472 28.8027 345.413 28.8614C345.368 28.9054 345.309 28.9274 345.235 28.9274H343.242C343.168 28.9274 343.102 28.9054 343.042 28.8614C342.998 28.8027 342.976 28.7367 342.976 28.6634V28.0915C342.976 27.5196 342.828 27.0649 342.533 26.7277C342.252 26.3757 341.876 26.1997 341.403 26.1997C340.96 26.1997 340.598 26.361 340.318 26.6837C340.037 26.9916 339.897 27.4242 339.897 27.9815C339.897 28.5094 340.045 28.9567 340.34 29.3233C340.65 29.6899 341.248 30.1959 342.134 30.8411C343.035 31.501 343.714 32.0436 344.172 32.4689C344.63 32.8795 344.984 33.3341 345.235 33.8328C345.487 34.3314 345.612 34.9253 345.612 35.6145C345.612 36.861 345.235 37.8656 344.482 38.6281C343.729 39.376 342.74 39.75 341.514 39.75Z" fill="#E9E1CE"/>
<path d="M355.221 24.176C355.295 24.176 355.354 24.2053 355.399 24.264C355.458 24.308 355.487 24.3666 355.487 24.4399V26.1117C355.487 26.1851 355.458 26.251 355.399 26.3097C355.354 26.3537 355.295 26.3757 355.221 26.3757H352.408C352.334 26.3757 352.297 26.4124 352.297 26.4857V39.3101C352.297 39.3834 352.268 39.4494 352.209 39.508C352.164 39.552 352.105 39.574 352.032 39.574H349.994C349.92 39.574 349.853 39.552 349.794 39.508C349.75 39.4494 349.728 39.3834 349.728 39.3101V26.4857C349.728 26.4124 349.691 26.3757 349.617 26.3757H346.959C346.885 26.3757 346.819 26.3537 346.76 26.3097C346.715 26.251 346.693 26.1851 346.693 26.1117V24.4399C346.693 24.3666 346.715 24.308 346.76 24.264C346.819 24.2053 346.885 24.176 346.959 24.176H355.221Z" fill="#E9E1CE"/>
<path d="M363.421 39.574C363.273 39.574 363.177 39.5007 363.133 39.354L361.25 33.0409C361.22 32.9822 361.183 32.9529 361.139 32.9529H359.965C359.891 32.9529 359.854 32.9895 359.854 33.0628V39.3101C359.854 39.3834 359.825 39.4494 359.766 39.508C359.721 39.552 359.662 39.574 359.588 39.574H357.551C357.477 39.574 357.41 39.552 357.351 39.508C357.307 39.4494 357.285 39.3834 357.285 39.3101V24.4399C357.285 24.3666 357.307 24.308 357.351 24.264C357.41 24.2053 357.477 24.176 357.551 24.176H361.715C362.498 24.176 363.184 24.3666 363.775 24.7479C364.381 25.1145 364.846 25.6425 365.171 26.3317C365.51 27.0063 365.68 27.7835 365.68 28.6634C365.68 29.5726 365.503 30.3572 365.148 31.0171C364.794 31.677 364.299 32.1756 363.664 32.5129C363.605 32.5276 363.583 32.5716 363.598 32.6449L365.769 39.2661C365.783 39.2954 365.791 39.3321 365.791 39.376C365.791 39.508 365.71 39.574 365.547 39.574H363.421ZM359.965 26.3757C359.891 26.3757 359.854 26.4124 359.854 26.4857V30.8631C359.854 30.9365 359.891 30.9731 359.965 30.9731H361.316C361.848 30.9731 362.276 30.7678 362.601 30.3572C362.941 29.9466 363.111 29.3893 363.111 28.6854C363.111 27.9815 362.941 27.4242 362.601 27.0136C362.276 26.5883 361.848 26.3757 361.316 26.3757H359.965Z" fill="#E9E1CE"/>
<path d="M373.959 39.574C373.782 39.574 373.686 39.4934 373.671 39.3321L373.25 37.0223C373.25 36.949 373.206 36.9124 373.117 36.9124H369.883C369.795 36.9124 369.75 36.949 369.75 37.0223L369.329 39.3321C369.315 39.4934 369.219 39.574 369.042 39.574H367.026C366.819 39.574 366.738 39.4787 366.782 39.2881L370.06 24.4179C370.09 24.2566 370.186 24.176 370.348 24.176H372.696C372.859 24.176 372.955 24.2566 372.984 24.4179L376.263 39.2881V39.376C376.263 39.508 376.182 39.574 376.019 39.574H373.959ZM370.149 34.8006C370.134 34.874 370.171 34.9106 370.26 34.9106H372.719C372.807 34.9106 372.844 34.874 372.829 34.8006L371.545 27.8495C371.53 27.8055 371.508 27.7835 371.478 27.7835C371.449 27.7835 371.426 27.8055 371.412 27.8495L370.149 34.8006Z" fill="#E9E1CE"/>
<path d="M378.036 39.574C377.962 39.574 377.896 39.552 377.837 39.508C377.793 39.4494 377.77 39.3834 377.77 39.3101V24.4399C377.77 24.3666 377.793 24.308 377.837 24.264C377.896 24.2053 377.962 24.176 378.036 24.176H380.074C380.148 24.176 380.207 24.2053 380.251 24.264C380.31 24.308 380.34 24.3666 380.34 24.4399V37.2643C380.34 37.3376 380.377 37.3743 380.451 37.3743H385.235C385.309 37.3743 385.368 37.4036 385.413 37.4623C385.472 37.5063 385.501 37.5649 385.501 37.6383V39.3101C385.501 39.3834 385.472 39.4494 385.413 39.508C385.368 39.552 385.309 39.574 385.235 39.574H378.036Z" fill="#E9E1CE"/>
<path d="M387.23 39.574C387.156 39.574 387.09 39.552 387.03 39.508C386.986 39.4494 386.964 39.3834 386.964 39.3101V24.4399C386.964 24.3666 386.986 24.308 387.03 24.264C387.09 24.2053 387.156 24.176 387.23 24.176H389.268C389.342 24.176 389.401 24.2053 389.445 24.264C389.504 24.308 389.534 24.3666 389.534 24.4399V39.3101C389.534 39.3834 389.504 39.4494 389.445 39.508C389.401 39.552 389.342 39.574 389.268 39.574H387.23Z" fill="#E9E1CE"/>
<path d="M398.209 39.574C398.032 39.574 397.936 39.4934 397.921 39.3321L397.5 37.0223C397.5 36.949 397.456 36.9124 397.367 36.9124H394.133C394.044 36.9124 394 36.949 394 37.0223L393.579 39.3321C393.564 39.4934 393.468 39.574 393.291 39.574H391.275C391.069 39.574 390.987 39.4787 391.032 39.2881L394.31 24.4179C394.34 24.2566 394.436 24.176 394.598 24.176H396.946C397.109 24.176 397.205 24.2566 397.234 24.4179L400.512 39.2881V39.376C400.512 39.508 400.431 39.574 400.269 39.574H398.209ZM394.399 34.8006C394.384 34.874 394.421 34.9106 394.509 34.9106H396.968C397.057 34.9106 397.094 34.874 397.079 34.8006L395.794 27.8495C395.779 27.8055 395.757 27.7835 395.728 27.7835C395.698 27.7835 395.676 27.8055 395.661 27.8495L394.399 34.8006Z" fill="#E9E1CE"/>
<path d="M408.311 24.4399C408.311 24.3666 408.333 24.308 408.377 24.264C408.436 24.2053 408.503 24.176 408.577 24.176H410.593C410.666 24.176 410.725 24.2053 410.77 24.264C410.829 24.308 410.858 24.3666 410.858 24.4399V39.3101C410.858 39.3834 410.829 39.4494 410.77 39.508C410.725 39.552 410.666 39.574 410.593 39.574H408.267C408.119 39.574 408.023 39.5007 407.979 39.354L404.678 30.0272C404.663 29.9832 404.634 29.9686 404.59 29.9832C404.56 29.9832 404.545 30.0052 404.545 30.0492L404.567 39.3101C404.567 39.3834 404.538 39.4494 404.479 39.508C404.434 39.552 404.375 39.574 404.302 39.574H402.286C402.212 39.574 402.145 39.552 402.086 39.508C402.042 39.4494 402.02 39.3834 402.02 39.3101V24.4399C402.02 24.3666 402.042 24.308 402.086 24.264C402.145 24.2053 402.212 24.176 402.286 24.176H404.567C404.715 24.176 404.811 24.2493 404.855 24.3959L408.178 33.6568C408.193 33.7008 408.215 33.7228 408.244 33.7228C408.289 33.7081 408.311 33.6788 408.311 33.6348V24.4399Z" fill="#E9E1CE"/>
<path d="M416.902 39.75C415.676 39.75 414.687 39.3834 413.934 38.6501C413.181 37.9169 412.804 36.9564 412.804 35.7685V35.1966C412.804 35.1233 412.826 35.0646 412.87 35.0206C412.93 34.9619 412.996 34.9326 413.07 34.9326H415.086C415.159 34.9326 415.219 34.9619 415.263 35.0206C415.322 35.0646 415.351 35.1233 415.351 35.1966V35.6365C415.351 36.2084 415.492 36.6704 415.772 37.0223C416.068 37.3743 416.444 37.5503 416.902 37.5503C417.36 37.5503 417.736 37.389 418.032 37.0663C418.327 36.7291 418.475 36.2891 418.475 35.7465C418.475 35.3652 418.394 35.0353 418.231 34.7566C418.069 34.478 417.84 34.214 417.544 33.9647C417.249 33.7154 416.776 33.3561 416.127 32.8869C415.388 32.3589 414.79 31.8897 414.332 31.479C413.889 31.0684 413.513 30.5772 413.203 30.0052C412.907 29.4186 412.76 28.7441 412.76 27.9815C412.76 26.7643 413.129 25.7964 413.867 25.0779C414.606 24.3593 415.58 24 416.791 24C418.017 24 419.006 24.3813 419.76 25.1439C420.513 25.8918 420.889 26.889 420.889 28.1355V28.6634C420.889 28.7367 420.86 28.8027 420.801 28.8614C420.756 28.9054 420.697 28.9274 420.623 28.9274H418.63C418.556 28.9274 418.49 28.9054 418.43 28.8614C418.386 28.8027 418.364 28.7367 418.364 28.6634V28.0915C418.364 27.5196 418.216 27.0649 417.921 26.7277C417.64 26.3757 417.264 26.1997 416.791 26.1997C416.348 26.1997 415.986 26.361 415.706 26.6837C415.425 26.9916 415.285 27.4242 415.285 27.9815C415.285 28.5094 415.433 28.9567 415.728 29.3233C416.038 29.6899 416.636 30.1959 417.522 30.8411C418.423 31.501 419.102 32.0436 419.56 32.4689C420.018 32.8795 420.372 33.3341 420.623 33.8328C420.874 34.3314 421 34.9253 421 35.6145C421 36.861 420.623 37.8656 419.87 38.6281C419.117 39.376 418.128 39.75 416.902 39.75Z" fill="#E9E1CE"/>
<path d="M51 358H117V442H105V466L81 442H27V418H-117V334H51V358ZM53.6582 372.25C49.0126 372.25 45.2696 373.593 42.4307 376.28C39.6433 378.916 38.25 382.456 38.25 386.9V413.1C38.25 417.544 39.6434 421.11 42.4307 423.797C45.2696 426.432 49.0126 427.75 53.6582 427.75C58.3036 427.75 62.0459 426.432 64.8848 423.797C67.7237 421.11 69.1436 417.544 69.1436 413.1V398.76C69.1436 398.501 69.0395 398.295 68.833 398.14C68.6782 397.933 68.4719 397.83 68.2139 397.83H54.4316C54.1738 397.83 53.9417 397.933 53.7354 398.14C53.5805 398.295 53.5029 398.501 53.5029 398.76V405.658C53.5029 405.917 53.5805 406.15 53.7354 406.356C53.9416 406.511 54.1738 406.589 54.4316 406.589H57.8389C58.0969 406.589 58.2256 406.718 58.2256 406.977V413.178C58.2255 414.728 57.8131 415.994 56.9873 416.976C56.1615 417.906 55.0517 418.371 53.6582 418.371C52.3162 418.371 51.2321 417.906 50.4062 416.976C49.5804 415.994 49.1671 414.728 49.167 413.178V386.822C49.1671 385.272 49.5804 384.032 50.4062 383.102C51.2321 382.12 52.3163 381.629 53.6582 381.629C55.0516 381.629 56.1615 382.12 56.9873 383.102C57.8131 384.032 58.2255 385.272 58.2256 386.822V389.923C58.2256 390.181 58.3032 390.414 58.458 390.621C58.6645 390.776 58.8972 390.854 59.1553 390.854H68.2139C68.4718 390.854 68.6782 390.776 68.833 390.621C69.0395 390.414 69.1436 390.181 69.1436 389.923V386.978C69.1435 382.533 67.7237 378.967 64.8848 376.28C62.0459 373.593 58.3035 372.25 53.6582 372.25ZM90.0322 372.25C85.2835 372.25 81.4893 373.645 78.6504 376.436C75.8115 379.226 74.3926 382.947 74.3926 387.598V412.402C74.3926 417.053 75.8115 420.774 78.6504 423.564C81.4893 426.355 85.2835 427.75 90.0322 427.75C94.781 427.75 98.5751 426.355 101.414 423.564C104.305 420.774 105.75 417.053 105.75 412.402V387.598C105.75 382.947 104.305 379.226 101.414 376.436C98.5751 373.645 94.781 372.25 90.0322 372.25ZM90.0322 381.629C91.4775 381.629 92.6391 382.146 93.5166 383.18C94.394 384.162 94.833 385.479 94.833 387.133V412.867C94.833 414.521 94.3941 415.865 93.5166 416.898C92.6391 417.88 91.4774 418.371 90.0322 418.371C88.5871 418.371 87.4253 417.88 86.5479 416.898C85.722 415.865 85.3096 414.521 85.3096 412.867V387.133C85.3096 385.479 85.7222 384.161 86.5479 383.18C87.4253 382.146 88.587 381.629 90.0322 381.629ZM-104.04 348.25C-104.307 348.25 -104.546 348.356 -104.76 348.567C-104.92 348.726 -105 348.937 -105 349.201V402.799C-105 403.063 -104.92 403.3 -104.76 403.512C-104.546 403.67 -104.307 403.75 -104.04 403.75H-94.6787C-94.412 403.75 -94.1981 403.67 -94.0381 403.512C-93.825 403.3 -93.7188 403.063 -93.7188 402.799V381.153C-93.7187 380.889 -93.5849 380.757 -93.3184 380.757H-83.7969C-83.5302 380.757 -83.3163 380.678 -83.1562 380.52C-82.943 380.308 -82.8369 380.07 -82.8369 379.806V372.115C-82.8369 371.851 -82.943 371.639 -83.1562 371.48C-83.3163 371.269 -83.5302 371.164 -83.7969 371.164H-93.3184C-93.5848 371.164 -93.7186 371.032 -93.7188 370.768V358.24C-93.7188 357.976 -93.585 357.844 -93.3184 357.844H-76.6758C-76.4091 357.844 -76.1952 357.764 -76.0352 357.605C-75.8221 357.394 -75.7159 357.157 -75.7158 356.893V349.201C-75.7159 348.937 -75.8221 348.726 -76.0352 348.567C-76.1952 348.356 -76.4091 348.25 -76.6758 348.25H-104.04ZM-64.2031 348.25C-64.7898 348.25 -65.1365 348.541 -65.2432 349.122L-77.0049 402.72C-77.1647 403.407 -76.8984 403.75 -76.2051 403.75H-66.8438C-66.2037 403.75 -65.8571 403.459 -65.8037 402.878L-64.5234 395.267C-64.5234 395.002 -64.363 394.87 -64.043 394.87H-53.8818C-53.5618 394.87 -53.4014 395.002 -53.4014 395.267L-52.1211 402.878C-52.0677 403.459 -51.7211 403.75 -51.0811 403.75H-41.4795C-40.8929 403.75 -40.5996 403.512 -40.5996 403.036L-40.6797 402.72L-52.3613 349.122C-52.468 348.541 -52.8148 348.25 -53.4014 348.25H-64.2031ZM-35.0449 348.25C-35.3116 348.25 -35.5523 348.356 -35.7656 348.567C-35.9254 348.726 -36.0048 348.937 -36.0049 349.201V402.799C-36.0048 403.063 -35.9253 403.3 -35.7656 403.512C-35.5523 403.67 -35.3116 403.75 -35.0449 403.75H-25.6836C-25.4169 403.75 -25.204 403.67 -25.0439 403.512C-24.8307 403.3 -24.7237 403.063 -24.7236 402.799V349.201C-24.7237 348.937 -24.8306 348.726 -25.0439 348.567C-25.204 348.356 -25.4169 348.25 -25.6836 348.25H-35.0449ZM-16.6045 348.25C-16.8712 348.25 -17.1118 348.356 -17.3252 348.567C-17.485 348.726 -17.5644 348.937 -17.5645 349.201V402.799C-17.5644 403.063 -17.485 403.3 -17.3252 403.512C-17.1118 403.67 -16.8712 403.75 -16.6045 403.75H-7.24316C-6.97655 403.75 -6.7635 403.67 -6.60352 403.512C-6.39028 403.3 -6.28327 403.063 -6.2832 402.799V381.153C-6.28312 380.889 -6.14944 380.757 -5.88281 380.757H-3.16309C-3.00308 380.757 -2.86937 380.863 -2.7627 381.074L3.39844 402.957C3.55846 403.486 3.9318 403.75 4.51855 403.75H14.1201C14.7067 403.75 15 403.486 15 402.957L14.9199 402.64L7.55859 379.251C7.50527 379.145 7.50532 379.066 7.55859 379.013C7.6119 378.907 7.69226 378.828 7.79883 378.775C9.93248 377.454 11.5863 375.603 12.7598 373.225C13.9865 370.846 14.5996 368.098 14.5996 364.979C14.5996 361.702 13.9599 358.795 12.6797 356.258C11.4528 353.721 9.69211 351.765 7.39844 350.391C5.10484 348.964 2.49125 348.25 -0.442383 348.25H-16.6045ZM-59.082 363.948C-58.9756 363.948 -58.896 364.028 -58.8428 364.187L-55.082 385.831C-55.0287 386.095 -55.1356 386.228 -55.4023 386.228H-62.6025C-62.8159 386.228 -62.9229 386.095 -62.9229 385.831L-59.3223 364.187C-59.2689 364.028 -59.1887 363.948 -59.082 363.948ZM-2.28223 357.844C-0.62882 357.844 0.704364 358.505 1.71777 359.826C2.78451 361.095 3.31836 362.839 3.31836 365.059C3.31836 367.226 2.78452 368.97 1.71777 370.291C0.704364 371.559 -0.62882 372.194 -2.28223 372.194H-5.88281C-6.14952 372.194 -6.2832 372.062 -6.2832 371.798V358.24C-6.2832 357.976 -6.14952 357.844 -5.88281 357.844H-2.28223Z" fill="#E9E1CE"/>
<g style="mix-blend-mode:multiply">
<path d="M27 358H51V334L27 358Z" fill="#E9E1CE"/>
</g>
<path d="M51 -42H117V42H105V66L81 42H27V18H-117V-66H51V-42ZM53.6582 -27.75C49.0126 -27.75 45.2696 -26.4069 42.4307 -23.7197C39.6433 -21.0843 38.25 -17.5437 38.25 -13.0996V13.0996C38.25 17.5437 39.6434 21.1097 42.4307 23.7969C45.2696 26.4323 49.0126 27.75 53.6582 27.75C58.3036 27.7499 62.0459 26.4323 64.8848 23.7969C67.7237 21.1097 69.1436 17.5437 69.1436 13.0996V-1.24023C69.1436 -1.49861 69.0395 -1.70533 68.833 -1.86035C68.6782 -2.06693 68.4719 -2.16992 68.2139 -2.16992H54.4316C54.1738 -2.1698 53.9417 -2.0669 53.7354 -1.86035C53.5805 -1.70533 53.5029 -1.49861 53.5029 -1.24023V5.6582C53.5029 5.91658 53.5805 6.14974 53.7354 6.35645C53.9416 6.51128 54.1738 6.58878 54.4316 6.58887H57.8389C58.0969 6.58887 58.2256 6.71819 58.2256 6.97656V13.1777C58.2255 14.7278 57.8131 15.9938 56.9873 16.9756C56.1615 17.9057 55.0517 18.371 53.6582 18.3711C52.3162 18.3711 51.2321 17.9056 50.4062 16.9756C49.5804 15.9938 49.1671 14.7278 49.167 13.1777V-13.1777C49.1671 -14.7278 49.5804 -15.9683 50.4062 -16.8984C51.2321 -17.88 52.3163 -18.3711 53.6582 -18.3711C55.0516 -18.371 56.1615 -17.8801 56.9873 -16.8984C57.8131 -15.9683 58.2255 -14.7278 58.2256 -13.1777V-10.0771C58.2256 -9.81877 58.3032 -9.58561 58.458 -9.37891C58.6645 -9.22388 58.8972 -9.14648 59.1553 -9.14648H68.2139C68.4718 -9.14648 68.6782 -9.2241 68.833 -9.37891C69.0395 -9.58561 69.1436 -9.81877 69.1436 -10.0771V-13.0225C69.1435 -17.4665 67.7237 -21.0326 64.8848 -23.7197C62.0459 -26.4067 58.3035 -27.7499 53.6582 -27.75ZM90.0322 -27.75C85.2835 -27.75 81.4893 -26.3549 78.6504 -23.5645C75.8115 -20.774 74.3926 -17.0531 74.3926 -12.4023V12.4023C74.3926 17.0531 75.8115 20.774 78.6504 23.5645C81.4893 26.3549 85.2835 27.75 90.0322 27.75C94.781 27.75 98.5751 26.3549 101.414 23.5645C104.305 20.774 105.75 17.0531 105.75 12.4023V-12.4023C105.75 -17.0531 104.305 -20.774 101.414 -23.5645C98.5751 -26.3549 94.781 -27.75 90.0322 -27.75ZM90.0322 -18.3711C91.4775 -18.3711 92.6391 -17.8538 93.5166 -16.8203C94.394 -15.8385 94.833 -14.5208 94.833 -12.8672V12.8672C94.833 14.5208 94.3941 15.8649 93.5166 16.8984C92.6391 17.8801 91.4774 18.3711 90.0322 18.3711C88.5871 18.371 87.4253 17.8802 86.5479 16.8984C85.722 15.8649 85.3096 14.5208 85.3096 12.8672V-12.8672C85.3096 -14.5206 85.7222 -15.8385 86.5479 -16.8203C87.4253 -17.8538 88.587 -18.371 90.0322 -18.3711ZM-104.04 -51.75C-104.307 -51.75 -104.546 -51.644 -104.76 -51.4326C-104.92 -51.2741 -105 -51.063 -105 -50.7988V2.79883C-105 3.06294 -104.92 3.3004 -104.76 3.51172C-104.546 3.67025 -104.307 3.74996 -104.04 3.75H-94.6787C-94.412 3.75 -94.1981 3.67029 -94.0381 3.51172C-93.825 3.30044 -93.7188 3.06287 -93.7188 2.79883V-18.8467C-93.7187 -19.1108 -93.5849 -19.2431 -93.3184 -19.2432H-83.7969C-83.5302 -19.2432 -83.3163 -19.3219 -83.1562 -19.4805C-82.943 -19.6919 -82.8369 -19.9301 -82.8369 -20.1943V-27.8848C-82.8369 -28.149 -82.943 -28.361 -83.1562 -28.5195C-83.3163 -28.731 -83.5302 -28.8359 -83.7969 -28.8359H-93.3184C-93.5848 -28.836 -93.7186 -28.9685 -93.7188 -29.2324V-41.7598C-93.7188 -42.024 -93.585 -42.1562 -93.3184 -42.1562H-76.6758C-76.4091 -42.1562 -76.1952 -42.236 -76.0352 -42.3945C-75.8221 -42.6058 -75.7159 -42.8435 -75.7158 -43.1074V-50.7988C-75.7159 -51.0628 -75.8221 -51.2741 -76.0352 -51.4326C-76.1952 -51.644 -76.4091 -51.75 -76.6758 -51.75H-104.04ZM-64.2031 -51.75C-64.7898 -51.75 -65.1365 -51.4593 -65.2432 -50.8779L-77.0049 2.71973C-77.1647 3.40662 -76.8984 3.74998 -76.2051 3.75H-66.8438C-66.2037 3.75 -65.8571 3.45929 -65.8037 2.87793L-64.5234 -4.7334C-64.5234 -4.99768 -64.363 -5.12988 -64.043 -5.12988H-53.8818C-53.5618 -5.12988 -53.4014 -4.99768 -53.4014 -4.7334L-52.1211 2.87793C-52.0677 3.45929 -51.7211 3.75 -51.0811 3.75H-41.4795C-40.8929 3.74992 -40.5996 3.51177 -40.5996 3.03613L-40.6797 2.71973L-52.3613 -50.8779C-52.468 -51.4593 -52.8148 -51.7499 -53.4014 -51.75H-64.2031ZM-35.0449 -51.75C-35.3116 -51.75 -35.5523 -51.644 -35.7656 -51.4326C-35.9254 -51.2741 -36.0048 -51.0628 -36.0049 -50.7988V2.79883C-36.0048 3.06281 -35.9253 3.30048 -35.7656 3.51172C-35.5523 3.67029 -35.3116 3.75 -35.0449 3.75H-25.6836C-25.4169 3.74999 -25.204 3.67028 -25.0439 3.51172C-24.8307 3.30036 -24.7237 3.06301 -24.7236 2.79883V-50.7988C-24.7237 -51.063 -24.8306 -51.2741 -25.0439 -51.4326C-25.204 -51.644 -25.4169 -51.75 -25.6836 -51.75H-35.0449ZM-16.6045 -51.75C-16.8712 -51.75 -17.1118 -51.644 -17.3252 -51.4326C-17.485 -51.2741 -17.5644 -51.0628 -17.5645 -50.7988V2.79883C-17.5644 3.06283 -17.485 3.30046 -17.3252 3.51172C-17.1118 3.67029 -16.8712 3.75 -16.6045 3.75H-7.24316C-6.97655 3.74996 -6.7635 3.67025 -6.60352 3.51172C-6.39028 3.30038 -6.28327 3.06298 -6.2832 2.79883V-18.8467C-6.28312 -19.1108 -6.14944 -19.2432 -5.88281 -19.2432H-3.16309C-3.00308 -19.2432 -2.86937 -19.1372 -2.7627 -18.9258L3.39844 2.95703C3.55846 3.4856 3.9318 3.75 4.51855 3.75H14.1201C14.7067 3.74993 15 3.48553 15 2.95703L14.9199 2.63965L7.55859 -20.749C7.50527 -20.8547 7.50532 -20.9344 7.55859 -20.9873C7.6119 -21.0929 7.69226 -21.1718 7.79883 -21.2246C9.93248 -22.546 11.5863 -24.3968 12.7598 -26.7754C13.9865 -29.1538 14.5996 -31.9022 14.5996 -35.0205C14.5996 -38.2976 13.9599 -41.205 12.6797 -43.7422C11.4528 -46.2793 9.69211 -48.2351 7.39844 -49.6094C5.10484 -51.0364 2.49125 -51.75 -0.442383 -51.75H-16.6045ZM-59.082 -36.0518C-58.9756 -36.0516 -58.896 -35.9718 -58.8428 -35.8135L-55.082 -14.1689C-55.0287 -13.9047 -55.1356 -13.7725 -55.4023 -13.7725H-62.6025C-62.8159 -13.7725 -62.9229 -13.9047 -62.9229 -14.1689L-59.3223 -35.8135C-59.2689 -35.972 -59.1887 -36.0518 -59.082 -36.0518ZM-2.28223 -42.1562C-0.62882 -42.1561 0.704364 -41.4952 1.71777 -40.1738C2.78451 -38.9053 3.31836 -37.1613 3.31836 -34.9414C3.31836 -32.7743 2.78452 -31.0304 1.71777 -29.709C0.704364 -28.4405 -0.62882 -27.8058 -2.28223 -27.8057H-5.88281C-6.14952 -27.8057 -6.2832 -27.9379 -6.2832 -28.2021V-41.7598C-6.2832 -42.0241 -6.14952 -42.1562 -5.88281 -42.1562H-2.28223Z" fill="#E9E1CE"/>
<path d="M-109.291 26.1117C-109.291 26.1851 -109.321 26.251 -109.38 26.3097C-109.424 26.3537 -109.483 26.3757 -109.557 26.3757H-114.32C-114.394 26.3757 -114.43 26.4124 -114.43 26.4857V30.6432C-114.43 30.7165 -114.394 30.7531 -114.32 30.7531H-111.506C-111.433 30.7531 -111.374 30.7825 -111.329 30.8411C-111.27 30.8851 -111.241 30.9438 -111.241 31.0171V32.7109C-111.241 32.7842 -111.27 32.8502 -111.329 32.9089C-111.374 32.9529 -111.433 32.9749 -111.506 32.9749H-114.32C-114.394 32.9749 -114.43 33.0115 -114.43 33.0848V39.3101C-114.43 39.3834 -114.46 39.4494 -114.519 39.508C-114.563 39.552 -114.622 39.574 -114.696 39.574H-116.734C-116.808 39.574 -116.874 39.552 -116.934 39.508C-116.978 39.4494 -117 39.3834 -117 39.3101V24.4399C-117 24.3666 -116.978 24.308 -116.934 24.264C-116.874 24.2053 -116.808 24.176 -116.734 24.176H-109.557C-109.483 24.176 -109.424 24.2053 -109.38 24.264C-109.321 24.308 -109.291 24.3666 -109.291 24.4399V26.1117Z" fill="#E9E1CE"/>
<path d="M-103.841 39.75C-105.111 39.75 -106.138 39.3687 -106.92 38.6061C-107.688 37.8436 -108.072 36.8317 -108.072 35.5705V28.1795C-108.072 26.9183 -107.688 25.9064 -106.92 25.1439C-106.138 24.3813 -105.111 24 -103.841 24C-102.571 24 -101.545 24.3813 -100.762 25.1439C-99.9796 25.9064 -99.5882 26.9183 -99.5882 28.1795V35.5705C-99.5882 36.8317 -99.9796 37.8436 -100.762 38.6061C-101.545 39.3687 -102.571 39.75 -103.841 39.75ZM-103.841 37.5503C-103.339 37.5503 -102.933 37.3816 -102.623 37.0443C-102.313 36.6924 -102.158 36.2378 -102.158 35.6805V28.0695C-102.158 27.5122 -102.313 27.0649 -102.623 26.7277C-102.933 26.3757 -103.339 26.1997 -103.841 26.1997C-104.343 26.1997 -104.749 26.3757 -105.06 26.7277C-105.355 27.0649 -105.503 27.5122 -105.503 28.0695V35.6805C-105.503 36.2378 -105.355 36.6924 -105.06 37.0443C-104.749 37.3816 -104.343 37.5503 -103.841 37.5503Z" fill="#E9E1CE"/>
<path d="M-91.3303 39.574C-91.478 39.574 -91.5739 39.5007 -91.6182 39.354L-93.5011 33.0409C-93.5306 32.9822 -93.5676 32.9529 -93.6119 32.9529H-94.7859C-94.8597 32.9529 -94.8966 32.9895 -94.8966 33.0628V39.3101C-94.8966 39.3834 -94.9262 39.4494 -94.9852 39.508C-95.0295 39.552 -95.0886 39.574 -95.1625 39.574H-97.2004C-97.2742 39.574 -97.3407 39.552 -97.3997 39.508C-97.444 39.4494 -97.4662 39.3834 -97.4662 39.3101V24.4399C-97.4662 24.3666 -97.444 24.308 -97.3997 24.264C-97.3407 24.2053 -97.2742 24.176 -97.2004 24.176H-93.0359C-92.2532 24.176 -91.5666 24.3666 -90.9759 24.7479C-90.3704 25.1145 -89.9052 25.6425 -89.5803 26.3317C-89.2407 27.0063 -89.0708 27.7835 -89.0708 28.6634C-89.0708 29.5726 -89.2481 30.3572 -89.6025 31.0171C-89.9569 31.677 -90.4516 32.1756 -91.0866 32.5129C-91.1457 32.5276 -91.1678 32.5716 -91.1531 32.6449L-88.9822 39.2661C-88.9675 39.2954 -88.9601 39.3321 -88.9601 39.376C-88.9601 39.508 -89.0413 39.574 -89.2038 39.574H-91.3303ZM-94.7859 26.3757C-94.8597 26.3757 -94.8966 26.4124 -94.8966 26.4857V30.8631C-94.8966 30.9365 -94.8597 30.9731 -94.7859 30.9731H-93.4346C-92.903 30.9731 -92.4748 30.7678 -92.1499 30.3572C-91.8102 29.9466 -91.6404 29.3893 -91.6404 28.6854C-91.6404 27.9815 -91.8102 27.4242 -92.1499 27.0136C-92.4748 26.5883 -92.903 26.3757 -93.4346 26.3757H-94.7859Z" fill="#E9E1CE"/>
<path d="M-76.5303 39.574C-76.7075 39.574 -76.8035 39.4934 -76.8182 39.3321L-77.2391 37.0223C-77.2391 36.949 -77.2834 36.9124 -77.372 36.9124H-80.6061C-80.6947 36.9124 -80.739 36.949 -80.739 37.0223L-81.1599 39.3321C-81.1747 39.4934 -81.2706 39.574 -81.4479 39.574H-83.4636C-83.6704 39.574 -83.7516 39.4787 -83.7073 39.2881L-80.4289 24.4179C-80.3994 24.2566 -80.3034 24.176 -80.1409 24.176H-77.7929C-77.6304 24.176 -77.5345 24.2566 -77.5049 24.4179L-74.2265 39.2881V39.376C-74.2265 39.508 -74.3078 39.574 -74.4702 39.574H-76.5303ZM-80.3403 34.8006C-80.3551 34.874 -80.3181 34.9106 -80.2295 34.9106H-77.7707C-77.6821 34.9106 -77.6452 34.874 -77.66 34.8006L-78.9448 27.8495C-78.9595 27.8055 -78.9817 27.7835 -79.0112 27.7835C-79.0407 27.7835 -79.0629 27.8055 -79.0777 27.8495L-80.3403 34.8006Z" fill="#E9E1CE"/>
<path d="M-68.621 39.75C-69.891 39.75 -70.91 39.3467 -71.6779 38.5402C-72.4311 37.7189 -72.8076 36.6411 -72.8076 35.3066V24.4399C-72.8076 24.3666 -72.7855 24.308 -72.7412 24.264C-72.6821 24.2053 -72.6157 24.176 -72.5418 24.176H-70.5039C-70.4301 24.176 -70.371 24.2053 -70.3267 24.264C-70.2676 24.308 -70.2381 24.3666 -70.2381 24.4399V35.5705C-70.2381 36.1571 -70.0904 36.6337 -69.7951 37.0003C-69.4997 37.367 -69.1084 37.5503 -68.621 37.5503C-68.1337 37.5503 -67.7424 37.367 -67.447 37.0003C-67.1517 36.6337 -67.004 36.1571 -67.004 35.5705V24.4399C-67.004 24.3666 -66.9818 24.308 -66.9375 24.264C-66.8785 24.2053 -66.812 24.176 -66.7382 24.176H-64.7003C-64.6264 24.176 -64.5674 24.2053 -64.5231 24.264C-64.464 24.308 -64.4344 24.3666 -64.4344 24.4399V35.3066C-64.4344 36.6411 -64.8184 37.7189 -65.5863 38.5402C-66.3542 39.3467 -67.3658 39.75 -68.621 39.75Z" fill="#E9E1CE"/>
<path d="M-58.486 39.75C-59.7117 39.75 -60.7011 39.3834 -61.4542 38.6501C-62.2074 37.9169 -62.5839 36.9564 -62.5839 35.7685V35.1966C-62.5839 35.1233 -62.5618 35.0646 -62.5175 35.0206C-62.4584 34.9619 -62.392 34.9326 -62.3181 34.9326H-60.3024C-60.2285 34.9326 -60.1695 34.9619 -60.1252 35.0206C-60.0661 35.0646 -60.0365 35.1233 -60.0365 35.1966V35.6365C-60.0365 36.2084 -59.8963 36.6704 -59.6157 37.0223C-59.3203 37.3743 -58.9437 37.5503 -58.486 37.5503C-58.0282 37.5503 -57.6516 37.389 -57.3562 37.0663C-57.0609 36.7291 -56.9132 36.2891 -56.9132 35.7465C-56.9132 35.3652 -56.9944 35.0353 -57.1569 34.7566C-57.3193 34.478 -57.5482 34.214 -57.8436 33.9647C-58.1389 33.7154 -58.6115 33.3561 -59.2613 32.8869C-59.9996 32.3589 -60.5977 31.8897 -61.0555 31.479C-61.4985 31.0684 -61.8751 30.5772 -62.1852 30.0052C-62.4806 29.4186 -62.6282 28.7441 -62.6282 27.9815C-62.6282 26.7643 -62.2591 25.7964 -61.5207 25.0779C-60.7823 24.3593 -59.8076 24 -58.5967 24C-57.371 24 -56.3816 24.3813 -55.6284 25.1439C-54.8753 25.8918 -54.4987 26.889 -54.4987 28.1355V28.6634C-54.4987 28.7367 -54.5283 28.8027 -54.5873 28.8614C-54.6316 28.9054 -54.6907 28.9274 -54.7645 28.9274H-56.7582C-56.832 28.9274 -56.8984 28.9054 -56.9575 28.8614C-57.0018 28.8027 -57.024 28.7367 -57.024 28.6634V28.0915C-57.024 27.5196 -57.1716 27.0649 -57.467 26.7277C-57.7476 26.3757 -58.1242 26.1997 -58.5967 26.1997C-59.0397 26.1997 -59.4015 26.361 -59.6821 26.6837C-59.9627 26.9916 -60.103 27.4242 -60.103 27.9815C-60.103 28.5094 -59.9553 28.9567 -59.66 29.3233C-59.3499 29.6899 -58.7518 30.1959 -57.8657 30.8411C-56.9649 31.501 -56.2856 32.0436 -55.8278 32.4689C-55.37 32.8795 -55.0156 33.3341 -54.7645 33.8328C-54.5135 34.3314 -54.388 34.9253 -54.388 35.6145C-54.388 36.861 -54.7645 37.8656 -55.5177 38.6281C-56.2708 39.376 -57.2602 39.75 -58.486 39.75Z" fill="#E9E1CE"/>
<path d="M-44.7786 24.176C-44.7048 24.176 -44.6457 24.2053 -44.6014 24.264C-44.5423 24.308 -44.5128 24.3666 -44.5128 24.4399V26.1117C-44.5128 26.1851 -44.5423 26.251 -44.6014 26.3097C-44.6457 26.3537 -44.7048 26.3757 -44.7786 26.3757H-47.5918C-47.6657 26.3757 -47.7026 26.4124 -47.7026 26.4857V39.3101C-47.7026 39.3834 -47.7321 39.4494 -47.7912 39.508C-47.8355 39.552 -47.8946 39.574 -47.9684 39.574H-50.0063C-50.0802 39.574 -50.1466 39.552 -50.2057 39.508C-50.25 39.4494 -50.2721 39.3834 -50.2721 39.3101V26.4857C-50.2721 26.4124 -50.3091 26.3757 -50.3829 26.3757H-53.0411C-53.1149 26.3757 -53.1814 26.3537 -53.2404 26.3097C-53.2847 26.251 -53.3069 26.1851 -53.3069 26.1117V24.4399C-53.3069 24.3666 -53.2847 24.308 -53.2404 24.264C-53.1814 24.2053 -53.1149 24.176 -53.0411 24.176H-44.7786Z" fill="#E9E1CE"/>
<path d="M-36.5794 39.574C-36.727 39.574 -36.823 39.5007 -36.8673 39.354L-38.7502 33.0409C-38.7797 32.9822 -38.8166 32.9529 -38.8609 32.9529H-40.035C-40.1088 32.9529 -40.1457 32.9895 -40.1457 33.0628V39.3101C-40.1457 39.3834 -40.1753 39.4494 -40.2343 39.508C-40.2786 39.552 -40.3377 39.574 -40.4115 39.574H-42.4495C-42.5233 39.574 -42.5897 39.552 -42.6488 39.508C-42.6931 39.4494 -42.7153 39.3834 -42.7153 39.3101V24.4399C-42.7153 24.3666 -42.6931 24.308 -42.6488 24.264C-42.5897 24.2053 -42.5233 24.176 -42.4495 24.176H-38.285C-37.5023 24.176 -36.8156 24.3666 -36.2249 24.7479C-35.6195 25.1145 -35.1543 25.6425 -34.8294 26.3317C-34.4898 27.0063 -34.3199 27.7835 -34.3199 28.6634C-34.3199 29.5726 -34.4971 30.3572 -34.8516 31.0171C-35.206 31.677 -35.7007 32.1756 -36.3357 32.5129C-36.3948 32.5276 -36.4169 32.5716 -36.4022 32.6449L-34.2313 39.2661C-34.2166 39.2954 -34.2092 39.3321 -34.2092 39.376C-34.2092 39.508 -34.2904 39.574 -34.4528 39.574H-36.5794ZM-40.035 26.3757C-40.1088 26.3757 -40.1457 26.4124 -40.1457 26.4857V30.8631C-40.1457 30.9365 -40.1088 30.9731 -40.035 30.9731H-38.6837C-38.1521 30.9731 -37.7238 30.7678 -37.399 30.3572C-37.0593 29.9466 -36.8895 29.3893 -36.8895 28.6854C-36.8895 27.9815 -37.0593 27.4242 -37.399 27.0136C-37.7238 26.5883 -38.1521 26.3757 -38.6837 26.3757H-40.035Z" fill="#E9E1CE"/>
<path d="M-26.0409 39.574C-26.2181 39.574 -26.3141 39.4934 -26.3288 39.3321L-26.7497 37.0223C-26.7497 36.949 -26.794 36.9124 -26.8826 36.9124H-30.1167C-30.2053 36.9124 -30.2496 36.949 -30.2496 37.0223L-30.6705 39.3321C-30.6853 39.4934 -30.7813 39.574 -30.9585 39.574H-32.9742C-33.181 39.574 -33.2622 39.4787 -33.2179 39.2881L-29.9395 24.4179C-29.91 24.2566 -29.814 24.176 -29.6515 24.176H-27.3035C-27.1411 24.176 -27.0451 24.2566 -27.0155 24.4179L-23.7371 39.2881V39.376C-23.7371 39.508 -23.8184 39.574 -23.9808 39.574H-26.0409ZM-29.8509 34.8006C-29.8657 34.874 -29.8287 34.9106 -29.7401 34.9106H-27.2814C-27.1928 34.9106 -27.1558 34.874 -27.1706 34.8006L-28.4554 27.8495C-28.4701 27.8055 -28.4923 27.7835 -28.5218 27.7835C-28.5514 27.7835 -28.5735 27.8055 -28.5883 27.8495L-29.8509 34.8006Z" fill="#E9E1CE"/>
<path d="M-21.9638 39.574C-22.0377 39.574 -22.1041 39.552 -22.1632 39.508C-22.2075 39.4494 -22.2296 39.3834 -22.2296 39.3101V24.4399C-22.2296 24.3666 -22.2075 24.308 -22.1632 24.264C-22.1041 24.2053 -22.0377 24.176 -21.9638 24.176H-19.9259C-19.8521 24.176 -19.793 24.2053 -19.7487 24.264C-19.6896 24.308 -19.6601 24.3666 -19.6601 24.4399V37.2643C-19.6601 37.3376 -19.6232 37.3743 -19.5493 37.3743H-14.7647C-14.6908 37.3743 -14.6317 37.4036 -14.5874 37.4623C-14.5284 37.5063 -14.4988 37.5649 -14.4988 37.6383V39.3101C-14.4988 39.3834 -14.5284 39.4494 -14.5874 39.508C-14.6317 39.552 -14.6908 39.574 -14.7647 39.574H-21.9638Z" fill="#E9E1CE"/>
<path d="M-12.7702 39.574C-12.844 39.574 -12.9105 39.552 -12.9695 39.508C-13.0138 39.4494 -13.036 39.3834 -13.036 39.3101V24.4399C-13.036 24.3666 -13.0138 24.308 -12.9695 24.264C-12.9105 24.2053 -12.844 24.176 -12.7702 24.176H-10.7323C-10.6584 24.176 -10.5993 24.2053 -10.555 24.264C-10.496 24.308 -10.4664 24.3666 -10.4664 24.4399V39.3101C-10.4664 39.3834 -10.496 39.4494 -10.555 39.508C-10.5993 39.552 -10.6584 39.574 -10.7323 39.574H-12.7702Z" fill="#E9E1CE"/>
<path d="M-1.79126 39.574C-1.96847 39.574 -2.06446 39.4934 -2.07923 39.3321L-2.5001 37.0223C-2.5001 36.949 -2.5444 36.9124 -2.63301 36.9124H-5.8671C-5.9557 36.9124 -6.00001 36.949 -6.00001 37.0223L-6.42089 39.3321C-6.43565 39.4934 -6.53164 39.574 -6.70885 39.574H-8.72462C-8.93137 39.574 -9.01259 39.4787 -8.96828 39.2881L-5.68989 24.4179C-5.66036 24.2566 -5.56437 24.176 -5.40192 24.176H-3.05389C-2.89144 24.176 -2.79545 24.2566 -2.76592 24.4179L0.512475 39.2881V39.376C0.512475 39.508 0.431256 39.574 0.268813 39.574H-1.79126ZM-5.60129 34.8006C-5.61605 34.874 -5.57913 34.9106 -5.49053 34.9106H-3.03174C-2.94313 34.9106 -2.90621 34.874 -2.92098 34.8006L-4.20575 27.8495C-4.22052 27.8055 -4.24267 27.7835 -4.27221 27.7835C-4.30174 27.7835 -4.32389 27.8055 -4.33866 27.8495L-5.60129 34.8006Z" fill="#E9E1CE"/>
<path d="M8.31094 24.4399C8.31094 24.3666 8.33309 24.308 8.3774 24.264C8.43647 24.2053 8.50292 24.176 8.57676 24.176H10.5925C10.6664 24.176 10.7254 24.2053 10.7697 24.264C10.8288 24.308 10.8583 24.3666 10.8583 24.4399V39.3101C10.8583 39.3834 10.8288 39.4494 10.7697 39.508C10.7254 39.552 10.6664 39.574 10.5925 39.574H8.26664C8.11897 39.574 8.02298 39.5007 7.97868 39.354L4.67813 30.0272C4.66337 29.9832 4.63382 29.9686 4.58952 29.9832C4.55999 29.9832 4.54522 30.0052 4.54522 30.0492L4.56737 39.3101C4.56737 39.3834 4.53784 39.4494 4.47877 39.508C4.43447 39.552 4.37539 39.574 4.30155 39.574H2.28579C2.21196 39.574 2.1455 39.552 2.08643 39.508C2.04213 39.4494 2.01997 39.3834 2.01997 39.3101V24.4399C2.01997 24.3666 2.04213 24.308 2.08643 24.264C2.1455 24.2053 2.21196 24.176 2.28579 24.176H4.56737C4.71505 24.176 4.81104 24.2493 4.85534 24.3959L8.17803 33.6568C8.1928 33.7008 8.21495 33.7228 8.24449 33.7228C8.28879 33.7081 8.31094 33.6788 8.31094 33.6348V24.4399Z" fill="#E9E1CE"/>
<path d="M16.902 39.75C15.6763 39.75 14.6869 39.3834 13.9337 38.6501C13.1806 37.9169 12.804 36.9564 12.804 35.7685V35.1966C12.804 35.1233 12.8262 35.0646 12.8705 35.0206C12.9295 34.9619 12.996 34.9326 13.0698 34.9326H15.0856C15.1594 34.9326 15.2185 34.9619 15.2628 35.0206C15.3219 35.0646 15.3514 35.1233 15.3514 35.1966V35.6365C15.3514 36.2084 15.4917 36.6704 15.7723 37.0223C16.0676 37.3743 16.4442 37.5503 16.902 37.5503C17.3598 37.5503 17.7364 37.389 18.0317 37.0663C18.3271 36.7291 18.4748 36.2891 18.4748 35.7465C18.4748 35.3652 18.3935 35.0353 18.2311 34.7566C18.0687 34.478 17.8397 34.214 17.5444 33.9647C17.249 33.7154 16.7765 33.3561 16.1267 32.8869C15.3883 32.3589 14.7903 31.8897 14.3325 31.479C13.8894 31.0684 13.5129 30.5772 13.2027 30.0052C12.9074 29.4186 12.7597 28.7441 12.7597 27.9815C12.7597 26.7643 13.1289 25.7964 13.8673 25.0779C14.6057 24.3593 15.5803 24 16.7913 24C18.017 24 19.0064 24.3813 19.7595 25.1439C20.5127 25.8918 20.8892 26.889 20.8892 28.1355V28.6634C20.8892 28.7367 20.8597 28.8027 20.8006 28.8614C20.7563 28.9054 20.6973 28.9274 20.6234 28.9274H18.6298C18.556 28.9274 18.4895 28.9054 18.4304 28.8614C18.3861 28.8027 18.364 28.7367 18.364 28.6634V28.0915C18.364 27.5196 18.2163 27.0649 17.921 26.7277C17.6404 26.3757 17.2638 26.1997 16.7913 26.1997C16.3482 26.1997 15.9864 26.361 15.7058 26.6837C15.4253 26.9916 15.285 27.4242 15.285 27.9815C15.285 28.5094 15.4326 28.9567 15.728 29.3233C16.0381 29.6899 16.6362 30.1959 17.5222 30.8411C18.4231 31.501 19.1024 32.0436 19.5602 32.4689C20.018 32.8795 20.3724 33.3341 20.6234 33.8328C20.8745 34.3314 21 34.9253 21 35.6145C21 36.861 20.6234 37.8656 19.8703 38.6281C19.1171 39.376 18.1277 39.75 16.902 39.75Z" fill="#E9E1CE"/>
</g>
<defs>
<clipPath id="clip0_109_1433">
<rect width="400" height="400" fill="white"/>
</clipPath>
</defs>
</svg>
