<svg width="234" height="132" viewBox="0 0 234 132" fill="none" xmlns="http://www.w3.org/2000/svg">
<path d="M168 0V24H234V108H222V132L198 108H144V84H0V0H168Z" fill="#6F0B23"/>
<path d="M144 24H168V0L144 24Z" fill="#300005" style="mix-blend-mode:multiply"/>
<path d="M7.70865 92.1117C7.70865 92.1851 7.67912 92.251 7.62005 92.3097C7.57574 92.3537 7.51667 92.3757 7.44284 92.3757H2.68031C2.60647 92.3757 2.56955 92.4124 2.56955 92.4857V96.6432C2.56955 96.7165 2.60647 96.7531 2.68031 96.7531H5.49352C5.56736 96.7531 5.62643 96.7825 5.67073 96.8411C5.7298 96.8851 5.75934 96.9438 5.75934 97.0171V98.7109C5.75934 98.7842 5.7298 98.8502 5.67073 98.9089C5.62643 98.9529 5.56736 98.9749 5.49352 98.9749H2.68031C2.60647 98.9749 2.56955 99.0115 2.56955 99.0848V105.31C2.56955 105.383 2.54002 105.449 2.48095 105.508C2.43664 105.552 2.37757 105.574 2.30374 105.574H0.265816C0.191978 105.574 0.125524 105.552 0.066454 105.508C0.0221513 105.449 0 105.383 0 105.31V90.4399C0 90.3666 0.0221513 90.308 0.066454 90.264C0.125524 90.2053 0.191978 90.176 0.265816 90.176H7.44284C7.51667 90.176 7.57574 90.2053 7.62005 90.264C7.67912 90.308 7.70865 90.3666 7.70865 90.4399V92.1117Z" fill="#6F0B23"/>
<path d="M13.1587 105.75C11.8887 105.75 10.8624 105.369 10.0797 104.606C9.3118 103.844 8.92784 102.832 8.92784 101.571V94.1795C8.92784 92.9183 9.3118 91.9064 10.0797 91.1439C10.8624 90.3813 11.8887 90 13.1587 90C14.4287 90 15.4551 90.3813 16.2378 91.1439C17.0204 91.9064 17.4118 92.9183 17.4118 94.1795V101.571C17.4118 102.832 17.0204 103.844 16.2378 104.606C15.4551 105.369 14.4287 105.75 13.1587 105.75ZM13.1587 103.55C13.6608 103.55 14.0669 103.382 14.3771 103.044C14.6872 102.692 14.8422 102.238 14.8422 101.681V94.0695C14.8422 93.5122 14.6872 93.0649 14.3771 92.7277C14.0669 92.3757 13.6608 92.1997 13.1587 92.1997C12.6566 92.1997 12.2505 92.3757 11.9404 92.7277C11.6451 93.0649 11.4974 93.5122 11.4974 94.0695V101.681C11.4974 102.238 11.6451 102.692 11.9404 103.044C12.2505 103.382 12.6566 103.55 13.1587 103.55Z" fill="#6F0B23"/>
<path d="M25.6697 105.574C25.522 105.574 25.4261 105.501 25.3818 105.354L23.4989 99.0409C23.4694 98.9822 23.4324 98.9529 23.3881 98.9529H22.2141C22.1403 98.9529 22.1034 98.9895 22.1034 99.0628V105.31C22.1034 105.383 22.0738 105.449 22.0148 105.508C21.9705 105.552 21.9114 105.574 21.8375 105.574H19.7996C19.7258 105.574 19.6593 105.552 19.6003 105.508C19.556 105.449 19.5338 105.383 19.5338 105.31V90.4399C19.5338 90.3666 19.556 90.308 19.6003 90.264C19.6593 90.2053 19.7258 90.176 19.7996 90.176H23.9641C24.7468 90.176 25.4334 90.3666 26.0241 90.7479C26.6296 91.1145 27.0948 91.6425 27.4197 92.3317C27.7593 93.0063 27.9292 93.7835 27.9292 94.6634C27.9292 95.5726 27.7519 96.3572 27.3975 97.0171C27.0431 97.677 26.5484 98.1756 25.9134 98.5129C25.8543 98.5276 25.8322 98.5716 25.8469 98.6449L28.0178 105.266C28.0325 105.295 28.0399 105.332 28.0399 105.376C28.0399 105.508 27.9587 105.574 27.7962 105.574H25.6697ZM22.2141 92.3757C22.1403 92.3757 22.1034 92.4124 22.1034 92.4857V96.8631C22.1034 96.9365 22.1403 96.9731 22.2141 96.9731H23.5654C24.097 96.9731 24.5252 96.7678 24.8501 96.3572C25.1898 95.9466 25.3596 95.3893 25.3596 94.6854C25.3596 93.9815 25.1898 93.4242 24.8501 93.0136C24.5252 92.5883 24.097 92.3757 23.5654 92.3757H22.2141Z" fill="#6F0B23"/>
<path d="M40.4697 105.574C40.2925 105.574 40.1965 105.493 40.1818 105.332L39.7609 103.022C39.7609 102.949 39.7166 102.912 39.628 102.912H36.3939C36.3053 102.912 36.261 102.949 36.261 103.022L35.8401 105.332C35.8253 105.493 35.7294 105.574 35.5521 105.574H33.5364C33.3296 105.574 33.2484 105.479 33.2927 105.288L36.5711 90.4179C36.6006 90.2566 36.6966 90.176 36.8591 90.176H39.2071C39.3696 90.176 39.4655 90.2566 39.4951 90.4179L42.7735 105.288V105.376C42.7735 105.508 42.6922 105.574 42.5298 105.574H40.4697ZM36.6597 100.801C36.6449 100.874 36.6819 100.911 36.7705 100.911H39.2293C39.3179 100.911 39.3548 100.874 39.34 100.801L38.0552 93.8495C38.0405 93.8055 38.0183 93.7835 37.9888 93.7835C37.9593 93.7835 37.9371 93.8055 37.9223 93.8495L36.6597 100.801Z" fill="#6F0B23"/>
<path d="M48.379 105.75C47.109 105.75 46.09 105.347 45.3221 104.54C44.5689 103.719 44.1924 102.641 44.1924 101.307V90.4399C44.1924 90.3666 44.2145 90.308 44.2588 90.264C44.3179 90.2053 44.3843 90.176 44.4582 90.176H46.4961C46.5699 90.176 46.629 90.2053 46.6733 90.264C46.7324 90.308 46.7619 90.3666 46.7619 90.4399V101.571C46.7619 102.157 46.9096 102.634 47.2049 103C47.5003 103.367 47.8916 103.55 48.379 103.55C48.8663 103.55 49.2576 103.367 49.553 103C49.8483 102.634 49.996 102.157 49.996 101.571V90.4399C49.996 90.3666 50.0182 90.308 50.0625 90.264C50.1215 90.2053 50.188 90.176 50.2618 90.176H52.2997C52.3736 90.176 52.4326 90.2053 52.4769 90.264C52.536 90.308 52.5656 90.3666 52.5656 90.4399V101.307C52.5656 102.641 52.1816 103.719 51.4137 104.54C50.6458 105.347 49.6342 105.75 48.379 105.75Z" fill="#6F0B23"/>
<path d="M58.514 105.75C57.2883 105.75 56.2989 105.383 55.5458 104.65C54.7926 103.917 54.4161 102.956 54.4161 101.769V101.197C54.4161 101.123 54.4382 101.065 54.4825 101.021C54.5416 100.962 54.608 100.933 54.6819 100.933H56.6976C56.7715 100.933 56.8305 100.962 56.8748 101.021C56.9339 101.065 56.9635 101.123 56.9635 101.197V101.637C56.9635 102.208 57.1037 102.67 57.3843 103.022C57.6797 103.374 58.0563 103.55 58.514 103.55C58.9718 103.55 59.3484 103.389 59.6438 103.066C59.9391 102.729 60.0868 102.289 60.0868 101.747C60.0868 101.365 60.0056 101.035 59.8431 100.757C59.6807 100.478 59.4518 100.214 59.1564 99.9647C58.8611 99.7154 58.3885 99.3561 57.7387 98.8869C57.0004 98.3589 56.4023 97.8897 55.9445 97.479C55.5015 97.0684 55.1249 96.5772 54.8148 96.0052C54.5194 95.4186 54.3718 94.7441 54.3718 93.9815C54.3718 92.7643 54.7409 91.7964 55.4793 91.0779C56.2177 90.3593 57.1924 90 58.4033 90C59.629 90 60.6184 90.3813 61.3716 91.1439C62.1247 91.8918 62.5013 92.889 62.5013 94.1355V94.6634C62.5013 94.7367 62.4717 94.8027 62.4127 94.8614C62.3684 94.9054 62.3093 94.9274 62.2355 94.9274H60.2418C60.168 94.9274 60.1016 94.9054 60.0425 94.8614C59.9982 94.8027 59.976 94.7367 59.976 94.6634V94.0915C59.976 93.5196 59.8284 93.0649 59.533 92.7277C59.2524 92.3757 58.8758 92.1997 58.4033 92.1997C57.9603 92.1997 57.5985 92.361 57.3179 92.6837C57.0373 92.9916 56.897 93.4242 56.897 93.9815C56.897 94.5094 57.0447 94.9567 57.34 95.3233C57.6501 95.6899 58.2482 96.1959 59.1343 96.8411C60.0351 97.501 60.7144 98.0436 61.1722 98.4689C61.63 98.8795 61.9844 99.3341 62.2355 99.8328C62.4865 100.331 62.612 100.925 62.612 101.615C62.612 102.861 62.2355 103.866 61.4823 104.628C60.7292 105.376 59.7398 105.75 58.514 105.75Z" fill="#6F0B23"/>
<path d="M72.2214 90.176C72.2952 90.176 72.3543 90.2053 72.3986 90.264C72.4577 90.308 72.4872 90.3666 72.4872 90.4399V92.1117C72.4872 92.1851 72.4577 92.251 72.3986 92.3097C72.3543 92.3537 72.2952 92.3757 72.2214 92.3757H69.4082C69.3343 92.3757 69.2974 92.4124 69.2974 92.4857V105.31C69.2974 105.383 69.2679 105.449 69.2088 105.508C69.1645 105.552 69.1054 105.574 69.0316 105.574H66.9937C66.9198 105.574 66.8534 105.552 66.7943 105.508C66.75 105.449 66.7279 105.383 66.7279 105.31V92.4857C66.7279 92.4124 66.6909 92.3757 66.6171 92.3757H63.9589C63.8851 92.3757 63.8186 92.3537 63.7596 92.3097C63.7153 92.251 63.6931 92.1851 63.6931 92.1117V90.4399C63.6931 90.3666 63.7153 90.308 63.7596 90.264C63.8186 90.2053 63.8851 90.176 63.9589 90.176H72.2214Z" fill="#6F0B23"/>
<path d="M80.4206 105.574C80.273 105.574 80.177 105.501 80.1327 105.354L78.2498 99.0409C78.2203 98.9822 78.1834 98.9529 78.1391 98.9529H76.965C76.8912 98.9529 76.8543 98.9895 76.8543 99.0628V105.31C76.8543 105.383 76.8247 105.449 76.7657 105.508C76.7214 105.552 76.6623 105.574 76.5885 105.574H74.5505C74.4767 105.574 74.4103 105.552 74.3512 105.508C74.3069 105.449 74.2847 105.383 74.2847 105.31V90.4399C74.2847 90.3666 74.3069 90.308 74.3512 90.264C74.4103 90.2053 74.4767 90.176 74.5505 90.176H78.715C79.4977 90.176 80.1844 90.3666 80.7751 90.7479C81.3805 91.1145 81.8457 91.6425 82.1706 92.3317C82.5102 93.0063 82.6801 93.7835 82.6801 94.6634C82.6801 95.5726 82.5029 96.3572 82.1484 97.0171C81.794 97.677 81.2993 98.1756 80.6643 98.5129C80.6052 98.5276 80.5831 98.5716 80.5978 98.6449L82.7687 105.266C82.7834 105.295 82.7908 105.332 82.7908 105.376C82.7908 105.508 82.7096 105.574 82.5472 105.574H80.4206ZM76.965 92.3757C76.8912 92.3757 76.8543 92.4124 76.8543 92.4857V96.8631C76.8543 96.9365 76.8912 96.9731 76.965 96.9731H78.3163C78.8479 96.9731 79.2762 96.7678 79.601 96.3572C79.9407 95.9466 80.1105 95.3893 80.1105 94.6854C80.1105 93.9815 79.9407 93.4242 79.601 93.0136C79.2762 92.5883 78.8479 92.3757 78.3163 92.3757H76.965Z" fill="#6F0B23"/>
<path d="M90.9591 105.574C90.7819 105.574 90.6859 105.493 90.6712 105.332L90.2503 103.022C90.2503 102.949 90.206 102.912 90.1174 102.912H86.8833C86.7947 102.912 86.7504 102.949 86.7504 103.022L86.3295 105.332C86.3147 105.493 86.2187 105.574 86.0415 105.574H84.0258C83.819 105.574 83.7378 105.479 83.7821 105.288L87.0605 90.4179C87.09 90.2566 87.186 90.176 87.3485 90.176H89.6965C89.8589 90.176 89.9549 90.2566 89.9845 90.4179L93.2629 105.288V105.376C93.2629 105.508 93.1816 105.574 93.0192 105.574H90.9591ZM87.1491 100.801C87.1343 100.874 87.1713 100.911 87.2599 100.911H89.7186C89.8072 100.911 89.8442 100.874 89.8294 100.801L88.5446 93.8495C88.5299 93.8055 88.5077 93.7835 88.4782 93.7835C88.4486 93.7835 88.4265 93.8055 88.4117 93.8495L87.1491 100.801Z" fill="#6F0B23"/>
<path d="M95.0362 105.574C94.9623 105.574 94.8959 105.552 94.8368 105.508C94.7925 105.449 94.7704 105.383 94.7704 105.31V90.4399C94.7704 90.3666 94.7925 90.308 94.8368 90.264C94.8959 90.2053 94.9623 90.176 95.0362 90.176H97.0741C97.1479 90.176 97.207 90.2053 97.2513 90.264C97.3104 90.308 97.3399 90.3666 97.3399 90.4399V103.264C97.3399 103.338 97.3768 103.374 97.4507 103.374H102.235C102.309 103.374 102.368 103.404 102.413 103.462C102.472 103.506 102.501 103.565 102.501 103.638V105.31C102.501 105.383 102.472 105.449 102.413 105.508C102.368 105.552 102.309 105.574 102.235 105.574H95.0362Z" fill="#6F0B23"/>
<path d="M104.23 105.574C104.156 105.574 104.09 105.552 104.03 105.508C103.986 105.449 103.964 105.383 103.964 105.31V90.4399C103.964 90.3666 103.986 90.308 104.03 90.264C104.09 90.2053 104.156 90.176 104.23 90.176H106.268C106.342 90.176 106.401 90.2053 106.445 90.264C106.504 90.308 106.534 90.3666 106.534 90.4399V105.31C106.534 105.383 106.504 105.449 106.445 105.508C106.401 105.552 106.342 105.574 106.268 105.574H104.23Z" fill="#6F0B23"/>
<path d="M115.209 105.574C115.032 105.574 114.936 105.493 114.921 105.332L114.5 103.022C114.5 102.949 114.456 102.912 114.367 102.912H111.133C111.044 102.912 111 102.949 111 103.022L110.579 105.332C110.564 105.493 110.468 105.574 110.291 105.574H108.275C108.069 105.574 107.987 105.479 108.032 105.288L111.31 90.4179C111.34 90.2566 111.436 90.176 111.598 90.176H113.946C114.109 90.176 114.205 90.2566 114.234 90.4179L117.512 105.288V105.376C117.512 105.508 117.431 105.574 117.269 105.574H115.209ZM111.399 100.801C111.384 100.874 111.421 100.911 111.509 100.911H113.968C114.057 100.911 114.094 100.874 114.079 100.801L112.794 93.8495C112.779 93.8055 112.757 93.7835 112.728 93.7835C112.698 93.7835 112.676 93.8055 112.661 93.8495L111.399 100.801Z" fill="#6F0B23"/>
<path d="M125.311 90.4399C125.311 90.3666 125.333 90.308 125.377 90.264C125.436 90.2053 125.503 90.176 125.577 90.176H127.593C127.666 90.176 127.725 90.2053 127.77 90.264C127.829 90.308 127.858 90.3666 127.858 90.4399V105.31C127.858 105.383 127.829 105.449 127.77 105.508C127.725 105.552 127.666 105.574 127.593 105.574H125.267C125.119 105.574 125.023 105.501 124.979 105.354L121.678 96.0272C121.663 95.9832 121.634 95.9686 121.59 95.9832C121.56 95.9832 121.545 96.0052 121.545 96.0492L121.567 105.31C121.567 105.383 121.538 105.449 121.479 105.508C121.434 105.552 121.375 105.574 121.302 105.574H119.286C119.212 105.574 119.145 105.552 119.086 105.508C119.042 105.449 119.02 105.383 119.02 105.31V90.4399C119.02 90.3666 119.042 90.308 119.086 90.264C119.145 90.2053 119.212 90.176 119.286 90.176H121.567C121.715 90.176 121.811 90.2493 121.855 90.3959L125.178 99.6568C125.193 99.7008 125.215 99.7228 125.244 99.7228C125.289 99.7081 125.311 99.6788 125.311 99.6348V90.4399Z" fill="#6F0B23"/>
<path d="M133.902 105.75C132.676 105.75 131.687 105.383 130.934 104.65C130.181 103.917 129.804 102.956 129.804 101.769V101.197C129.804 101.123 129.826 101.065 129.87 101.021C129.93 100.962 129.996 100.933 130.07 100.933H132.086C132.159 100.933 132.219 100.962 132.263 101.021C132.322 101.065 132.351 101.123 132.351 101.197V101.637C132.351 102.208 132.492 102.67 132.772 103.022C133.068 103.374 133.444 103.55 133.902 103.55C134.36 103.55 134.736 103.389 135.032 103.066C135.327 102.729 135.475 102.289 135.475 101.747C135.475 101.365 135.394 101.035 135.231 100.757C135.069 100.478 134.84 100.214 134.544 99.9647C134.249 99.7154 133.776 99.3561 133.127 98.8869C132.388 98.3589 131.79 97.8897 131.332 97.479C130.889 97.0684 130.513 96.5772 130.203 96.0052C129.907 95.4186 129.76 94.7441 129.76 93.9815C129.76 92.7643 130.129 91.7964 130.867 91.0779C131.606 90.3593 132.58 90 133.791 90C135.017 90 136.006 90.3813 136.76 91.1439C137.513 91.8918 137.889 92.889 137.889 94.1355V94.6634C137.889 94.7367 137.86 94.8027 137.801 94.8614C137.756 94.9054 137.697 94.9274 137.623 94.9274H135.63C135.556 94.9274 135.49 94.9054 135.43 94.8614C135.386 94.8027 135.364 94.7367 135.364 94.6634V94.0915C135.364 93.5196 135.216 93.0649 134.921 92.7277C134.64 92.3757 134.264 92.1997 133.791 92.1997C133.348 92.1997 132.986 92.361 132.706 92.6837C132.425 92.9916 132.285 93.4242 132.285 93.9815C132.285 94.5094 132.433 94.9567 132.728 95.3233C133.038 95.6899 133.636 96.1959 134.522 96.8411C135.423 97.501 136.102 98.0436 136.56 98.4689C137.018 98.8795 137.372 99.3341 137.623 99.8328C137.874 100.331 138 100.925 138 101.615C138 102.861 137.623 103.866 136.87 104.628C136.117 105.376 135.128 105.75 133.902 105.75Z" fill="#6F0B23"/>
<path d="M170.658 93.75C166.012 93.75 162.27 92.4323 159.431 89.7968C156.644 87.1096 155.25 83.544 155.25 79.0999V52.9001C155.25 48.456 156.644 44.9162 159.431 42.2807C162.27 39.5936 166.012 38.25 170.658 38.25C175.303 38.25 179.046 39.5936 181.885 42.2807C184.724 44.9679 186.143 48.5335 186.143 52.9777V55.9232C186.143 56.1816 186.04 56.4141 185.833 56.6208C185.679 56.7758 185.472 56.8533 185.214 56.8533H176.155C175.897 56.8533 175.665 56.7758 175.458 56.6208C175.303 56.4141 175.226 56.1816 175.226 55.9232V52.8226C175.226 51.2723 174.813 50.0321 173.987 49.102C173.161 48.1201 172.052 47.6292 170.658 47.6292C169.316 47.6292 168.232 48.1201 167.406 49.102C166.58 50.0321 166.167 51.2723 166.167 52.8226V79.1774C166.167 80.7277 166.58 81.9937 167.406 82.9756C168.232 83.9057 169.316 84.3708 170.658 84.3708C172.052 84.3708 173.161 83.9057 173.987 82.9756C174.813 81.9937 175.226 80.7277 175.226 79.1774V72.9763C175.226 72.7179 175.097 72.5887 174.839 72.5887H171.432C171.174 72.5887 170.942 72.5112 170.735 72.3561C170.58 72.1494 170.503 71.9169 170.503 71.6585V64.7598C170.503 64.5014 170.58 64.2947 170.735 64.1397C170.942 63.933 171.174 63.8296 171.432 63.8296H185.214C185.472 63.8296 185.679 63.933 185.833 64.1397C186.04 64.2947 186.143 64.5014 186.143 64.7598V79.0999C186.143 83.544 184.724 87.1096 181.885 89.7968C179.046 92.4323 175.303 93.75 170.658 93.75Z" fill="white"/>
<path d="M207.032 93.75C202.284 93.75 198.49 92.3547 195.651 89.5642C192.812 86.7737 191.392 83.0531 191.392 78.4022V53.5978C191.392 48.9469 192.812 45.2263 195.651 42.4358C198.49 39.6453 202.284 38.25 207.032 38.25C211.781 38.25 215.575 39.6453 218.414 42.4358C221.305 45.2263 222.75 48.9469 222.75 53.5978V78.4022C222.75 83.0531 221.305 86.7737 218.414 89.5642C215.575 92.3547 211.781 93.75 207.032 93.75ZM207.032 84.3708C208.478 84.3708 209.639 83.8799 210.517 82.898C211.394 81.8645 211.833 80.5209 211.833 78.8673V53.1327C211.833 51.479 211.394 50.1613 210.517 49.1795C209.639 48.1459 208.478 47.6292 207.032 47.6292C205.587 47.6292 204.426 48.1459 203.548 49.1795C202.722 50.1613 202.309 51.479 202.309 53.1327V78.8673C202.309 80.5209 202.722 81.8645 203.548 82.898C204.426 83.8799 205.587 84.3708 207.032 84.3708Z" fill="white"/>
<path d="M41.2844 22.8921C41.2844 23.1564 41.1777 23.3943 40.9644 23.6057C40.8044 23.7643 40.591 23.8436 40.3243 23.8436H23.6818C23.4151 23.8436 23.2817 23.9757 23.2817 24.24V36.7671C23.2817 37.0314 23.4151 37.1636 23.6818 37.1636H33.2032C33.4699 37.1636 33.6833 37.2693 33.8433 37.4807C34.0567 37.6393 34.1633 37.8507 34.1633 38.115V45.8057C34.1633 46.07 34.0567 46.3079 33.8433 46.5193C33.6833 46.6779 33.4699 46.7571 33.2032 46.7571H23.6818C23.4151 46.7571 23.2817 46.8893 23.2817 47.1536V68.7986C23.2817 69.0629 23.175 69.3007 22.9617 69.5121C22.8016 69.6707 22.5883 69.75 22.3216 69.75H12.9601C12.6934 69.75 12.4534 69.6707 12.24 69.5121C12.08 69.3007 12 69.0629 12 68.7986V15.2014C12 14.9371 12.08 14.7257 12.24 14.5671C12.4534 14.3557 12.6934 14.25 12.9601 14.25H40.3243C40.591 14.25 40.8044 14.3557 40.9644 14.5671C41.1777 14.7257 41.2844 14.9371 41.2844 15.2014V22.8921Z" fill="white"/>
<path d="M65.9188 69.75C65.2787 69.75 64.932 69.4593 64.8786 68.8779L63.5984 61.2664C63.5984 61.0021 63.4384 60.87 63.1183 60.87H52.9568C52.6368 60.87 52.4767 61.0021 52.4767 61.2664L51.1965 68.8779C51.1432 69.4593 50.7965 69.75 50.1564 69.75H40.795C40.1015 69.75 39.8348 69.4064 39.9949 68.7193L51.7566 15.1221C51.8633 14.5407 52.21 14.25 52.7968 14.25H63.5984C64.1852 14.25 64.5319 14.5407 64.6386 15.1221L76.3203 68.7193L76.4004 69.0364C76.4004 69.5121 76.107 69.75 75.5202 69.75H65.9188ZM54.077 51.8314C54.077 52.0957 54.1837 52.2279 54.397 52.2279H61.5981C61.8648 52.2279 61.9715 52.0957 61.9182 51.8314L58.1576 30.1864C58.1043 30.0279 58.0242 29.9486 57.9176 29.9486C57.8109 29.9486 57.7309 30.0279 57.6775 30.1864L54.077 51.8314Z" fill="white"/>
<path d="M81.9549 69.75C81.6882 69.75 81.4482 69.6707 81.2348 69.5121C81.0748 69.3007 80.9948 69.0629 80.9948 68.7986V15.2014C80.9948 14.9371 81.0748 14.7257 81.2348 14.5671C81.4482 14.3557 81.6882 14.25 81.9549 14.25H91.3164C91.5831 14.25 91.7964 14.3557 91.9565 14.5671C92.1698 14.7257 92.2765 14.9371 92.2765 15.2014V68.7986C92.2765 69.0629 92.1698 69.3007 91.9565 69.5121C91.7964 69.6707 91.5831 69.75 91.3164 69.75H81.9549Z" fill="white"/>
<path d="M121.518 69.75C120.932 69.75 120.558 69.4857 120.398 68.9571L114.237 47.0743C114.131 46.8629 113.997 46.7571 113.837 46.7571H111.117C110.85 46.7571 110.717 46.8893 110.717 47.1536V68.7986C110.717 69.0629 110.61 69.3007 110.397 69.5121C110.237 69.6707 110.023 69.75 109.757 69.75H100.395C100.129 69.75 99.8885 69.6707 99.6751 69.5121C99.5151 69.3007 99.4351 69.0629 99.4351 68.7986V15.2014C99.4351 14.9371 99.5151 14.7257 99.6751 14.5671C99.8885 14.3557 100.129 14.25 100.395 14.25H116.558C119.491 14.25 122.105 14.9636 124.399 16.3907C126.693 17.765 128.453 19.7207 129.68 22.2579C130.96 24.795 131.6 27.7021 131.6 30.9793C131.6 34.0979 130.987 36.8464 129.76 39.225C128.586 41.6036 126.933 43.4536 124.799 44.775C124.692 44.8279 124.612 44.9071 124.559 45.0129C124.506 45.0657 124.506 45.145 124.559 45.2507L131.92 68.64L132 68.9571C132 69.4857 131.707 69.75 131.12 69.75H121.518ZM111.117 23.8436C110.85 23.8436 110.717 23.9757 110.717 24.24V37.7979C110.717 38.0621 110.85 38.1943 111.117 38.1943H114.717C116.371 38.1943 117.705 37.56 118.718 36.2914C119.785 34.97 120.318 33.2257 120.318 31.0586C120.318 28.8386 119.785 27.0943 118.718 25.8257C117.705 24.5043 116.371 23.8436 114.717 23.8436H111.117Z" fill="white"/>
</svg>
